SplineFontDB: 3.0
FontName: Jinko-Bold
FullName: Jinko Bold
FamilyName: Jinko
Weight: Bold
Copyright: Copyright (c) 2012 by vernon adams. All rights reserved.
FONDName: Kinjo
ItalicAngle: 0
UnderlinePosition: 0
UnderlineWidth: 0
Ascent: 1638
Descent: 410
UFOAscent: 3115
UFODescent: -847
LayerCount: 2
Layer: 0 0 "Back"  1
Layer: 1 0 "Fore"  0
NeedsXUIDChange: 1
OS2Version: 0
OS2_WeightWidthSlopeOnly: 0
OS2_UseTypoMetrics: 0
CreationTime: 1336824691
ModificationTime: 1336824702
PfmFamily: 0
TTFWeight: 700
TTFWidth: 5
LineGap: 0
VLineGap: 0
OS2TypoAscent: 1901
OS2TypoAOffset: 0
OS2TypoDescent: -483
OS2TypoDOffset: 0
OS2TypoLinegap: 0
OS2WinAscent: 1901
OS2WinAOffset: 0
OS2WinDescent: 483
OS2WinDOffset: 0
HheadAscent: 1901
HheadAOffset: 0
HheadDescent: -483
HheadDOffset: 0
OS2Vendor: 'newt'
Lookup: 258 0 0 "'kern' Horizontal Kerning lookup 0"  {"'kern' Horizontal Kerning lookup 0 subtable"  } ['kern' ('DFLT' <'dflt' > ) ]
Lookup: 258 0 0 "'kern' Horizontal Kerning in Latin lookup 0"  {"'kern' Horizontal Kerning in Latin lookup 0 subtable"  } ['kern' ('latn' <'dflt' > ) ]
DEI: 91125
LangName: 1033 "" "" "" "" "" "1" "" "" "" "vernon adams" "" "" "" "" "http://scripts.sil.org/OFL" 
PickledData: "(dp1
S'com.typemytype.robofont.compileSettings.autohint'
p2
I01
sS'com.typemytype.robofont.compileSettings.decompose'
p3
I01
sS'public.glyphOrder'
p4
(S'A'
S'Agrave'
S'Aacute'
S'Acircumflex'
S'Atilde'
S'Adieresis'
S'Aring'
S'Amacron'
S'Abreve'
S'Aogonek'
S'uni0202'
S'B'
S'uni1E02'
S'C'
S'Ccedilla'
S'Cacute'
S'Ccircumflex'
S'Cdotaccent'
S'Ccaron'
S'D'
S'Dcaron'
S'uni1E0A'
S'E'
S'Egrave'
S'Eacute'
S'Ecircumflex'
S'Edieresis'
S'Emacron'
S'Edotaccent'
S'Eogonek'
S'Ecaron'
S'uni0206'
S'F'
S'uni1E1E'
S'G'
S'Gcircumflex'
S'Gbreve'
S'Gdotaccent'
S'Gcommaaccent'
S'uni01F4'
S'H'
S'Hcircumflex'
S'I'
S'Igrave'
S'Iacute'
S'Icircumflex'
S'Idieresis'
S'Itilde'
S'Imacron'
S'Ibreve'
S'Iogonek'
S'Idotaccent'
S'uni020A'
S'J'
S'Jcircumflex'
S'K'
S'Kcommaaccent'
S'L'
S'Lacute'
S'Lcommaaccent'

StartChar: A
Encoding: 65 65 0
Width: 1403
VWidth: 0
Flags: W
LayerCount: 2
Fore
SplineSet
-15 0 m 1
 377 0 l 1
 465 281 l 1
 935 281 l 1
 1024 0 l 1
 1420 0 l 1
 897 1481 l 1
 510 1481 l 1
 -15 0 l 1
550 553 m 1
 700 1030 l 1
 851 553 l 1
 550 553 l 1
EndSplineSet
EndChar

StartChar: AE
Encoding: 198 198 1
Width: 1937
VWidth: 0
Flags: W
LayerCount: 2
Fore
SplineSet
-28 0 m 1
 346 0 l 1
 477 318 l 1
 876 318 l 1
 876 0 l 1
 1861 0 l 1
 1861 270 l 1
 1238 270 l 1
 1238 601 l 1
 1781 601 l 1
 1781 866 l 1
 1238 866 l 1
 1238 1127 l 1
 1863 1127 l 1
 1863 1396 l 1
 581 1396 l 1
 -28 0 l 1
584 582 m 1
 821 1141 l 1
 876 1141 l 1
 876 582 l 1
 584 582 l 1
EndSplineSet
EndChar

StartChar: B
Encoding: 66 66 11
Width: 1405
VWidth: 0
Flags: W
LayerCount: 2
Fore
SplineSet
148 0 m 1
 751 0 l 2
 1087 0 1348 121 1348 443 c 0
 1348 625 1236 749 1062 785 c 1
 1062 792 l 1
 1190 845 1248 956 1248 1078 c 0
 1248 1417 989 1481 556 1481 c 2
 148 1481 l 1
 148 0 l 1
531 277 m 1
 531 628 l 1
 597 628 l 2
 783 628 955 620 955 454 c 0
 955 328 852 277 716 277 c 2
 531 277 l 1
531 885 m 1
 531 1207 l 1
 592 1207 l 2
 802 1207 892 1185 892 1049 c 0
 892 906 800 885 580 885 c 2
 531 885 l 1
EndSplineSet
EndChar

StartChar: C
Encoding: 67 67 12
Width: 1323
VWidth: 0
Flags: W
LayerCount: 2
Fore
SplineSet
817 -26 m 0
 1011 -26 1142 18 1292 103 c 1
 1226 378 l 1
 1226 378 1054 260 864 260 c 0
 583 260 464 426 464 737 c 0
 464 1041 591 1213 859 1213 c 0
 1069 1213 1215 1096 1215 1096 c 1
 1292 1391 l 1
 1154 1461 1014 1501 825 1501 c 0
 314 1501 70 1232 70 740 c 0
 70 253 316 -26 817 -26 c 0
EndSplineSet
EndChar

StartChar: D
Encoding: 68 68 18
Width: 1512
VWidth: 0
Flags: W
LayerCount: 2
Fore
SplineSet
533 282 m 1
 533 1199 l 1
 709 1199 l 2
 933 1199 1055 1052 1055 737 c 0
 1055 399 935 282 647 282 c 2
 533 282 l 1
148 0 m 1
 608 0 l 2
 1124 0 1448 182 1448 738 c 0
 1448 1290 1127 1482 602 1482 c 2
 148 1482 l 1
 148 0 l 1
EndSplineSet
EndChar

StartChar: Delta
Encoding: 916 916 21
Width: 1097
VWidth: 0
Flags: W
LayerCount: 2
Fore
SplineSet
49 0 m 1
 1047 0 l 1
 1047 124 l 1
 663 1378 l 1
 446 1378 l 1
 49 121 l 1
 49 0 l 1
240 159 m 1
 240 159 531 1059 547 1136 c 1
 552 1136 l 1
 568 1047 853 159 853 159 c 1
 240 159 l 1
EndSplineSet
EndChar

StartChar: E
Encoding: 69 69 22
Width: 1262
VWidth: 0
Flags: W
LayerCount: 2
Fore
SplineSet
148 0 m 1
 1180 0 l 1
 1180 286 l 1
 531 286 l 1
 531 636 l 1
 1095 636 l 1
 1095 918 l 1
 531 918 l 1
 531 1194 l 1
 1181 1194 l 1
 1181 1481 l 1
 148 1481 l 1
 148 0 l 1
EndSplineSet
EndChar

StartChar: Eth
Encoding: 208 208 31
Width: 1217
VWidth: 0
Flags: W
LayerCount: 2
Fore
SplineSet
28 667 m 1
 692 667 l 1
 692 853 l 1
 28 853 l 1
 28 667 l 1
EndSplineSet
Refer: 18 68 N 1 0 0 1 0 0 2
EndChar

StartChar: Euro
Encoding: 8364 8364 32
Width: 1174
VWidth: 0
Flags: W
LayerCount: 2
Fore
SplineSet
766 -24 m 1
 919 -13 1049 13 1161 61 c 1
 1161 383 l 1
 1068 383 l 1
 1004 278 864 255 802 255 c 1
 661 264 568 330 515 470 c 1
 922 470 l 1
 963 647 l 1
 465 647 l 1
 464 656 464 669 464 685 c 0
 464 713 466 755 469 819 c 1
 994 819 l 1
 1030 986 l 1
 504 986 l 1
 555 1149 650 1226 819 1226 c 0
 880 1226 996 1196 1047 1097 c 1
 1161 1097 l 1
 1161 1417 l 1
 1038 1466 892 1504 749 1504 c 0
 397 1504 170 1312 99 986 c 1
 1 986 l 1
 -37 819 l 1
 76 819 l 1
 73 755 72 715 72 685 c 0
 72 669 73 656 74 647 c 1
 0 647 l 1
 -43 470 l 1
 105 470 l 1
 187 129 415 -24 766 -24 c 1
EndSplineSet
EndChar

StartChar: F
Encoding: 70 70 33
Width: 1211
VWidth: 0
Flags: W
LayerCount: 2
Fore
SplineSet
148 0 m 1
 531 0 l 1
 531 615 l 1
 1121 615 l 1
 1121 898 l 1
 531 898 l 1
 531 1194 l 1
 1180 1194 l 1
 1180 1481 l 1
 148 1481 l 1
 148 0 l 1
EndSplineSet
EndChar

StartChar: G
Encoding: 71 71 34
Width: 1470
VWidth: 0
Flags: W
LayerCount: 2
Fore
SplineSet
810 -22 m 0
 1037 -22 1277 54 1353 141 c 1
 1353 831 l 1
 707 831 l 1
 707 549 l 1
 981 549 l 1
 981 288 l 1
 959 273 888 262 827 262 c 0
 574 262 464 436 464 746 c 0
 464 1050 581 1211 878 1211 c 0
 1093 1211 1274 1079 1274 1076 c 2
 1348 1353 l 1
 1198 1443 1079 1504 808 1504 c 0
 325 1504 70 1235 70 741 c 0
 70 269 321 -22 810 -22 c 0
EndSplineSet
EndChar

StartChar: H
Encoding: 72 72 39
Width: 1549
VWidth: 0
Flags: W
LayerCount: 2
Fore
SplineSet
148 0 m 1
 533 0 l 1
 533 636 l 1
 1020 636 l 1
 1020 0 l 1
 1405 0 l 1
 1405 1481 l 1
 1020 1481 l 1
 1020 917 l 1
 533 917 l 1
 533 1481 l 1
 148 1481 l 1
 148 0 l 1
EndSplineSet
EndChar

StartChar: I
Encoding: 73 73 42
Width: 906
VWidth: 0
Flags: W
LayerCount: 2
Fore
SplineSet
109 0 m 1
 799 0 l 1
 799 255 l 1
 647 255 l 1
 647 1223 l 1
 799 1223 l 1
 799 1481 l 1
 109 1481 l 1
 109 1223 l 1
 262 1223 l 1
 262 255 l 1
 109 255 l 1
 109 0 l 1
EndSplineSet
EndChar

StartChar: J
Encoding: 74 74 53
Width: 1081
VWidth: 0
Flags: W
LayerCount: 2
Fore
SplineSet
384 -20 m 0
 716 -20 957 159 957 454 c 2
 957 1481 l 1
 325 1481 l 1
 325 1174 l 1
 571 1174 l 1
 571 607 l 2
 571 372 465 278 312 278 c 0
 236 278 149 299 59 338 c 1
 -5 66 l 1
 80 15 203 -20 384 -20 c 0
EndSplineSet
EndChar

StartChar: K
Encoding: 75 75 55
Width: 1438
VWidth: 0
Flags: W
LayerCount: 2
Fore
SplineSet
148 0 m 1
 531 0 l 1
 531 477 l 1
 654 628 l 1
 725 505 l 1
 824 336 924 169 1021 0 c 1
 1479 0 l 1
 957 832 l 1
 1450 1481 l 1
 1007 1481 l 1
 895 1322 780 1166 669 1007 c 1
 533 816 l 1
 531 816 l 1
 531 1481 l 1
 148 1481 l 1
 148 0 l 1
EndSplineSet
EndChar

StartChar: L
Encoding: 76 76 57
Width: 1219
VWidth: 0
Flags: W
LayerCount: 2
Fore
SplineSet
148 0 m 1
 1179 0 l 1
 1179 286 l 1
 533 286 l 1
 533 1481 l 1
 148 1481 l 1
 148 0 l 1
EndSplineSet
EndChar

StartChar: Lslash
Encoding: 321 321 62
Width: 1219
VWidth: 0
Flags: W
LayerCount: 2
Fore
SplineSet
148 0 m 1
 1179 0 l 1
 1179 286 l 1
 533 286 l 1
 533 748 l 1
 777 920 l 1
 777 1141 l 1
 533 968 l 1
 533 1481 l 1
 148 1481 l 1
 148 699 l 1
 13 604 l 1
 13 385 l 1
 148 478 l 1
 148 0 l 1
EndSplineSet
EndChar

StartChar: M
Encoding: 77 77 63
Width: 1828
VWidth: 0
Flags: W
LayerCount: 2
Fore
SplineSet
148 0 m 1
 516 0 l 1
 516 701 l 2
 516 749 514 839 516 878 c 1
 516 878 696 463 769 292 c 1
 1047 292 l 1
 1130 488 1215 680 1300 878 c 1
 1303 839 1302 749 1302 701 c 2
 1302 0 l 1
 1684 0 l 1
 1684 1481 l 1
 1274 1481 l 1
 917 699 l 1
 561 1481 l 1
 148 1481 l 1
 148 0 l 1
EndSplineSet
EndChar

StartChar: N
Encoding: 78 78 64
Width: 1590
VWidth: 0
Flags: W
LayerCount: 2
Fore
SplineSet
145 0 m 1
 503 0 l 1
 503 759 l 2
 503 810 502 918 505 961 c 1
 699 646 899 318 1095 0 c 1
 1448 0 l 1
 1448 1481 l 1
 1091 1481 l 1
 1091 931 l 1
 1091 660 l 1
 1060 699 579 1481 579 1481 c 1
 145 1481 l 1
 145 0 l 1
EndSplineSet
EndChar

StartChar: O
Encoding: 79 79 69
Width: 1512
VWidth: 0
Flags: W
PickledData: "(dp1
S'com.fontlab.hintData'
p2
(dp3
S'vhints'
p4
((dp5
S'position'
p6
I71
sS'width'
p7
I393
s(dp8
g6
I1052
sg7
I392
stp9
sS'hhints'
p10
((dp11
g6
I-24
sg7
I288
s(dp12
g6
I1215
sg7
I289
stp13
ss."
HStem: -24 288<646.5 873.5 646.5 988.5> 1215 289<647 872>
VStem: 71 393<590.5 890.5 590.5 985> 1052 392<596 888.5>
LayerCount: 2
Fore
SplineSet
760 264 m 0
 533 264 464 441 464 740 c 0
 464 1041 534 1215 760 1215 c 0
 984 1215 1052 1037 1052 740 c 0
 1052 452 987 264 760 264 c 0
759 -24 m 0
 1218 -24 1444 253 1444 740 c 0
 1444 1232 1216 1504 759 1504 c 0
 302 1504 71 1230 71 740 c 0
 71 253 300 -24 759 -24 c 0
EndSplineSet
EndChar

StartChar: OE
Encoding: 338 338 70
Width: 1994
VWidth: 0
Flags: W
LayerCount: 2
Fore
SplineSet
685 0 m 2
 1917 0 l 1
 1917 286 l 1
 1325 286 l 1
 1325 636 l 1
 1836 636 l 1
 1836 918 l 1
 1325 918 l 1
 1325 1194 l 1
 1917 1194 l 1
 1917 1481 l 1
 702 1481 l 2
 307 1481 62 1233 62 737 c 0
 62 202 349 0 685 0 c 2
740 286 m 1
 518 291 433 417 433 735 c 0
 433 1076 524 1194 746 1194 c 2
 943 1194 l 1
 943 286 l 1
 740 286 l 1
EndSplineSet
EndChar

StartChar: Omega
Encoding: 937 937 78
Width: 1427
VWidth: 0
Flags: W
LayerCount: 2
Fore
SplineSet
77 0 m 1
 615 0 l 1
 615 200 l 1
 449 340 374 504 374 721 c 0
 374 978 518 1146 720 1146 c 0
 923 1146 1055 960 1055 731 c 0
 1055 499 963 322 812 200 c 1
 812 0 l 1
 1350 0 l 1
 1350 217 l 1
 1116 217 l 1
 1043 218 l 1
 1230 338 1343 530 1343 777 c 0
 1343 1108 1100 1375 716 1375 c 0
 349 1375 87 1125 87 767 c 0
 87 521 201 314 378 217 c 1
 77 217 l 1
 77 0 l 1
EndSplineSet
EndChar

StartChar: Oslash
Encoding: 216 216 79
Width: 1512
VWidth: 0
Flags: W
LayerCount: 2
Fore
SplineSet
759 -24 m 0
 1218 -24 1444 253 1444 740 c 0
 1444 1004 1379 1206 1248 1334 c 1
 1356 1504 l 1
 1159 1504 l 1
 1113 1430 l 1
 1016 1478 899 1504 759 1504 c 0
 302 1504 71 1230 71 740 c 0
 71 466 145 256 290 128 c 1
 194 -24 l 1
 387 -24 l 1
 428 40 l 1
 522 -2 631 -24 759 -24 c 0
498 459 m 1
 474 534 464 628 464 740 c 0
 464 1041 534 1215 760 1215 c 0
 836 1215 894 1194 938 1154 c 1
 498 459 l 1
760 264 m 0
 694 264 642 278 599 308 c 1
 1028 988 l 1
 1044 919 1052 835 1052 740 c 0
 1052 452 987 264 760 264 c 0
EndSplineSet
EndChar

StartChar: P
Encoding: 80 80 81
Width: 1384
VWidth: 0
Flags: W
LayerCount: 2
Fore
SplineSet
148 0 m 1
 533 0 l 1
 533 500 l 1
 759 500 l 2
 1126 500 1345 714 1345 1011 c 0
 1345 1352 1081 1481 782 1481 c 2
 148 1481 l 1
 148 0 l 1
533 781 m 1
 533 1197 l 1
 637 1197 l 2
 770 1197 953 1194 953 1007 c 0
 953 793 766 781 564 781 c 2
 533 781 l 1
EndSplineSet
EndChar

StartChar: Q
Encoding: 81 81 82
Width: 1512
VWidth: 0
Flags: W
PickledData: "(dp1
S'com.typemytype.robofont.layerData'
p2
(dp3
s."
LayerCount: 2
Fore
SplineSet
1046 -416 m 1
 1250 -322 l 1
 866 476 l 1
 622 476 l 1
 1046 -416 l 1
EndSplineSet
Refer: 69 79 N 1 0 0 1 0 0 2
EndChar

StartChar: R
Encoding: 82 82 83
Width: 1480
VWidth: 0
Flags: W
LayerCount: 2
Fore
SplineSet
148 0 m 1
 531 0 l 1
 531 562 l 1
 687 562 l 1
 1007 0 l 1
 1414 0 l 1
 1414 70 l 1
 1056 625 l 1
 1268 706 1356 838 1356 1056 c 0
 1356 1489 919 1481 633 1481 c 2
 148 1481 l 1
 148 0 l 1
531 832 m 1
 531 1207 l 1
 654 1207 l 2
 890 1207 968 1172 968 1032 c 0
 968 878 872 832 667 832 c 2
 531 832 l 1
EndSplineSet
EndChar

StartChar: S
Encoding: 83 83 87
Width: 1203
VWidth: 0
Flags: W
LayerCount: 2
Fore
SplineSet
610 -20 m 0
 993 -20 1248 164 1248 457 c 0
 1248 704 1088 841 767 909 c 1
 525 955 457 984 457 1076 c 0
 457 1207 584 1221 669 1221 c 0
 826 1221 973 1170 1087 1090 c 1
 1147 1090 l 1
 1194 1383 l 1
 1053 1455 862 1503 674 1503 c 0
 325 1503 74 1309 74 1040 c 0
 74 846 157 711 365 629 c 1
 542 553 859 582 859 408 c 0
 859 290 715 260 610 260 c 0
 453 260 290 316 152 418 c 1
 92 418 l 1
 40 125 l 1
 190 35 372 -20 610 -20 c 0
EndSplineSet
EndChar

StartChar: T
Encoding: 84 84 92
Width: 1220
VWidth: 0
Flags: W
LayerCount: 2
Fore
SplineSet
418 0 m 1
 805 0 l 1
 805 1199 l 1
 1223 1199 l 1
 1223 1481 l 1
 -1 1481 l 1
 -1 1199 l 1
 418 1199 l 1
 418 0 l 1
EndSplineSet
EndChar

StartChar: Thorn
Encoding: 222 222 94
Width: 1384
VWidth: 0
Flags: W
LayerCount: 2
Fore
SplineSet
148 0 m 1
 533 0 l 1
 533 334 l 1
 759 334 l 2
 1126 334 1345 548 1345 845 c 0
 1345 1186 1081 1315 782 1315 c 2
 533 1315 l 1
 533 1481 l 1
 148 1481 l 1
 148 0 l 1
533 615 m 1
 533 1032 l 1
 637 1032 l 2
 770 1032 953 1028 953 841 c 0
 953 627 766 615 564 615 c 2
 533 615 l 1
EndSplineSet
EndChar

StartChar: U
Encoding: 85 85 95
Width: 1496
VWidth: 0
Flags: W
LayerCount: 2
Fore
SplineSet
749 -24 m 0
 1145 -24 1377 178 1377 506 c 2
 1377 1481 l 1
 992 1481 l 1
 992 538 l 2
 992 351 903 266 749 266 c 0
 588 266 508 355 508 536 c 2
 508 1481 l 1
 122 1481 l 1
 122 505 l 2
 122 171 369 -24 749 -24 c 0
EndSplineSet
EndChar

StartChar: V
Encoding: 86 86 106
Width: 1344
VWidth: 0
Flags: W
LayerCount: 2
Fore
SplineSet
492 0 m 1
 855 0 l 1
 1369 1481 l 1
 979 1481 l 1
 900 1227 815 976 738 720 c 0
 718 652 697 585 679 516 c 1
 677 516 l 1
 677 516 631 674 615 718 c 1
 535 971 456 1228 377 1481 c 1
 -22 1481 l 1
 492 0 l 1
EndSplineSet
EndChar

StartChar: W
Encoding: 87 87 107
Width: 2071
VWidth: 0
Flags: W
LayerCount: 2
Fore
SplineSet
397 0 m 1
 795 0 l 1
 1035 882 l 1
 1088 715 1199 280 1276 0 c 1
 1677 0 l 1
 2062 1481 l 1
 1667 1481 l 1
 1614 1236 1562 984 1509 738 c 0
 1494 670 1481 602 1466 535 c 1
 1450 584 1425 686 1410 747 c 2
 1220 1481 l 1
 862 1481 l 1
 801 1253 738 1024 677 797 c 2
 607 533 l 1
 604 533 l 1
 561 756 l 1
 512 998 463 1240 415 1481 c 1
 13 1481 l 1
 397 0 l 1
EndSplineSet
EndChar

StartChar: X
Encoding: 88 88 112
Width: 1349
VWidth: 0
Flags: W
LayerCount: 2
Fore
SplineSet
-39 0 m 1
 389 0 l 1
 389 0 566 295 573 306 c 0
 604 357 637 411 668 462 c 1
 698 413 733 358 764 309 c 1
 945 0 l 1
 1391 0 l 1
 908 764 l 1
 1365 1481 l 1
 935 1481 l 1
 778 1213 l 1
 743 1156 712 1106 679 1053 c 1
 647 1109 614 1162 582 1218 c 0
 531 1306 480 1392 429 1481 c 1
 -15 1481 l 1
 443 752 l 1
 -39 0 l 1
EndSplineSet
EndChar

StartChar: Y
Encoding: 89 89 113
Width: 1336
VWidth: 0
Flags: W
LayerCount: 2
Fore
SplineSet
483 0 m 1
 864 0 l 1
 864 608 l 1
 1371 1481 l 1
 948 1481 l 1
 860 1300 770 1126 681 944 c 1
 586 1123 496 1300 404 1481 c 1
 -32 1481 l 1
 483 596 l 1
 483 0 l 1
EndSplineSet
EndChar

StartChar: Z
Encoding: 90 90 118
Width: 1216
VWidth: 0
Flags: W
LayerCount: 2
Fore
SplineSet
41 0 m 1
 1188 0 l 1
 1188 286 l 1
 517 286 l 1
 1154 1209 l 1
 1154 1481 l 1
 76 1481 l 1
 76 1199 l 1
 681 1199 l 1
 41 272 l 1
 41 0 l 1
EndSplineSet
EndChar

StartChar: a
Encoding: 97 97 122
Width: 1144
VWidth: 0
Flags: W
PickledData: "(dp1
S'com.fontlab.hintData'
p2
(dp3
S'vhints'
p4
((dp5
S'position'
p6
I57
sS'width'
p7
I338
s(dp8
g6
I708
sg7
I339
stp9
sS'hhints'
p10
((dp11
g6
I-18
sg7
I233
s(dp12
g6
I476
sg7
I181
s(dp13
g6
I815
sg7
I244
stp14
ss."
HStem: -18 233<286.5 578.5> 476 181<708 708> 815 244<456 591.5>
VStem: 57 338<295 398.5 295 456> 708 339<0 707 365 476 657 707 707 715.5>
LayerCount: 2
Fore
SplineSet
385 -18 m 0
 542 -18 654 56 707 151 c 1
 708 0 l 1
 1047 0 l 1
 1047 707 l 2
 1047 949 882 1059 522 1059 c 0
 365 1059 201 1024 135 976 c 1
 190 747 l 1
 292 787 405 815 507 815 c 0
 676 815 708 774 708 657 c 1
 351 657 57 613 57 299 c 0
 57 118 188 -18 385 -18 c 0
531 215 m 0
 444 215 395 258 395 332 c 0
 395 465 517 461 708 476 c 1
 708 254 626 215 531 215 c 0
EndSplineSet
EndChar

StartChar: acute
Encoding: 180 180 126
Width: 845
VWidth: 0
Flags: W
LayerCount: 2
Fore
SplineSet
202 1169 m 1
 437 1169 l 1
 735 1516 l 1
 404 1516 l 1
 202 1169 l 1
EndSplineSet
EndChar

StartChar: ae
Encoding: 230 230 128
Width: 1769
VWidth: 0
Flags: W
LayerCount: 2
Fore
SplineSet
1272 -26 m 0
 1513 -26 1625 33 1712 90 c 1
 1660 331 l 1
 1613 332 l 1
 1560 262 1425 218 1320 218 c 0
 1161 218 1040 271 1027 434 c 1
 1729 434 l 1
 1729 581 l 2
 1729 884 1551 1063 1234 1063 c 0
 1109 1063 958 1019 884 905 c 1
 807 1030 673 1061 496 1061 c 0
 342 1061 145 1013 79 966 c 1
 136 739 l 1
 218 787 367 825 452 825 c 0
 645 825 685 751 685 657 c 1
 683 657 590 658 544 647 c 1
 265 627 31 543 31 299 c 0
 31 93 179 -22 457 -22 c 0
 610 -22 775 51 858 148 c 1
 936 68 1038 -26 1272 -26 c 0
527 210 m 0
 410 210 369 250 369 325 c 0
 369 444 513 441 694 452 c 1
 700 360 714 210 527 210 c 0
1025 638 m 1
 1024 765 1093 843 1213 843 c 0
 1323 843 1390 776 1392 638 c 1
 1025 638 l 1
EndSplineSet
EndChar

StartChar: ampersand
Encoding: 38 38 131
Width: 1594
VWidth: 0
Flags: W
LayerCount: 2
Fore
SplineSet
643 -24 m 0
 804 -24 945 22 1081 107 c 1
 1207 0 l 1
 1684 0 l 1
 1684 0 1363 280 1312 328 c 1
 1449 456 1468 616 1483 759 c 1
 1133 785 l 1
 1133 744 1131 605 1098 527 c 1
 1003 622 909 718 815 815 c 1
 1041 894 1129 1025 1129 1177 c 0
 1129 1359 970 1504 664 1504 c 0
 311 1504 182 1321 182 1154 c 0
 182 1013 259 925 348 843 c 1
 203 764 78 638 78 437 c 0
 78 175 291 -24 643 -24 c 0
658 236 m 1
 572 243 452 327 452 479 c 0
 452 532 474 618 525 663 c 1
 651 537 777 412 904 290 c 1
 827 245 761 226 658 236 c 1
668 963 m 1
 604 1025 545 1093 545 1159 c 0
 545 1261 617 1279 648 1279 c 0
 683 1279 769 1264 769 1144 c 0
 769 1080 742 1024 668 963 c 1
EndSplineSet
EndChar

StartChar: approxequal
Encoding: 8776 8776 133
Width: 1273
VWidth: 0
Flags: W
LayerCount: 2
Fore
SplineSet
306 204 m 1
 324 293 368 351 450 351 c 0
 487 351 536 327 604 288 c 0
 698 235 775 210 839 210 c 0
 1000 210 1101 325 1123 496 c 1
 968 518 l 1
 958 433 914 393 838 382 c 0
 794 375 734 402 662 444 c 0
 592 484 519 515 441 515 c 0
 280 515 175 401 151 224 c 1
 306 204 l 1
306 594 m 1
 324 681 368 736 450 736 c 0
 489 736 538 712 604 675 c 0
 698 622 773 596 839 596 c 0
 998 596 1101 713 1123 884 c 1
 968 905 l 1
 957 820 912 768 830 766 c 0
 786 764 730 789 662 830 c 0
 593 871 520 901 443 901 c 0
 281 901 175 789 151 615 c 1
 306 594 l 1
EndSplineSet
EndChar

StartChar: asciicircum
Encoding: 94 94 135
Width: 1498
VWidth: 0
Flags: W
LayerCount: 2
Fore
SplineSet
141 602 m 1
 431 602 l 1
 736 1144 l 1
 1069 604 l 1
 1359 604 l 1
 853 1396 l 1
 621 1396 l 1
 141 602 l 1
EndSplineSet
EndChar

StartChar: asciitilde
Encoding: 126 126 136
Width: 1498
VWidth: 0
Flags: W
PickledData: "(dp1
S'com.fontlab.hintData'
p2
(dp3
S'vhints'
p4
((dp5
S'position'
p6
I121
sS'width'
p7
I215
s(dp8
g6
I1167
sg7
I217
stp9
sS'hhints'
p10
((dp11
g6
I310
sg7
I270
s(dp12
g6
I571
sg7
I275
stp13
ss."
HStem: 310 270<951.5 1096.5 951.5 1146> 571 275<431 517.5>
VStem: 121 215<351 351> 1167 217<802 802 802 848>
LayerCount: 2
Fore
SplineSet
1032 310 m 0
 1260 310 1369 477 1384 802 c 1
 1167 848 l 1
 1167 751 1164 580 1029 580 c 0
 874 580 687 846 483 846 c 0
 268 846 136 683 121 351 c 1
 336 307 l 1
 336 471 392 571 470 571 c 0
 565 571 758 310 1032 310 c 0
EndSplineSet
EndChar

StartChar: asterisk
Encoding: 42 42 137
Width: 1100
VWidth: 0
Flags: W
LayerCount: 2
Fore
SplineSet
508 595 m 1
 564 595 618 622 633 673 c 1
 633 763 589 876 573 966 c 1
 634 913 705 820 774 778 c 0
 794 765 816 758 838 756 c 1
 884 769 926 816 937 867 c 1
 928 989 724 992 612 1043 c 1
 723 1092 932 1101 937 1220 c 1
 926 1269 885 1318 838 1331 c 1
 750 1325 662 1200 589 1131 c 0
 583 1126 575 1121 571 1118 c 1
 586 1203 632 1304 632 1389 c 0
 632 1448 591 1483 550 1492 c 1
 494 1492 443 1465 428 1414 c 1
 428 1320 476 1213 487 1118 c 1
 423 1169 354 1264 284 1307 c 0
 264 1320 242 1329 220 1331 c 1
 173 1318 133 1269 122 1220 c 1
 127 1100 330 1092 446 1043 c 1
 333 995 131 988 122 867 c 1
 133 816 173 769 220 756 c 1
 303 762 396 883 469 953 c 0
 475 958 482 963 485 966 c 1
 472 884 427 782 427 699 c 0
 427 638 467 604 508 595 c 1
EndSplineSet
EndChar

StartChar: at
Encoding: 64 64 138
Width: 1823
VWidth: 0
Flags: W
LayerCount: 2
Fore
SplineSet
983 -143 m 0
 1145 -143 1325 -88 1463 11 c 1
 1413 135 l 1
 1286 66 1136 30 983 30 c 0
 587 30 310 287 310 665 c 0
 310 1032 577 1317 988 1317 c 0
 1353 1317 1601 1075 1601 727 c 0
 1601 562 1559 338 1399 338 c 0
 1322 338 1304 381 1304 443 c 0
 1304 463 1307 488 1310 512 c 2
 1378 1108 l 1
 1190 1108 l 1
 1180 1047 l 1
 1131 1080 1081 1145 932 1145 c 0
 683 1145 494 904 494 607 c 0
 494 402 633 215 853 215 c 0
 950 215 1082 251 1138 319 c 1
 1173 225 1250 189 1365 189 c 0
 1614 189 1785 404 1785 745 c 0
 1785 1178 1454 1492 983 1492 c 0
 487 1492 122 1148 122 667 c 0
 122 191 474 -143 983 -143 c 0
899 367 m 0
 783 367 695 453 695 621 c 0
 695 816 809 977 970 977 c 0
 1043 977 1108 931 1151 874 c 1
 1105 420 l 1
 1035 385 965 367 899 367 c 0
EndSplineSet
EndChar

StartChar: b
Encoding: 98 98 140
Width: 1246
VWidth: 0
Flags: W
LayerCount: 2
Fore
SplineSet
744 -20 m 0
 1023 -20 1167 215 1167 527 c 0
 1167 852 1064 1059 782 1059 c 0
 655 1059 551 1010 457 934 c 1
 457 1437 l 1
 119 1437 l 1
 119 0 l 1
 457 0 l 1
 457 82 l 1
 535 14 623 -20 744 -20 c 0
599 240 m 0
 555 240 483 245 457 260 c 1
 457 738 l 1
 497 778 560 800 629 800 c 0
 772 800 821 705 821 523 c 0
 821 354 768 240 599 240 c 0
EndSplineSet
EndChar

StartChar: backslash
Encoding: 92 92 141
Width: 1124
VWidth: 0
Flags: W
LayerCount: 2
Fore
SplineSet
721 -218 m 1
 1007 -218 l 1
 464 1528 l 1
 179 1528 l 1
 721 -218 l 1
EndSplineSet
EndChar

StartChar: bar
Encoding: 124 124 142
Width: 1167
VWidth: 0
Flags: W
LayerCount: 2
Fore
SplineSet
444 -433 m 1
 725 -433 l 1
 725 1549 l 1
 444 1549 l 1
 444 -433 l 1
EndSplineSet
EndChar

StartChar: braceleft
Encoding: 123 123 143
Width: 1077
VWidth: 0
Flags: W
LayerCount: 2
Fore
SplineSet
854 -328 m 0
 872 -328 997 -326 997 -326 c 1
 997 -115 l 1
 971 -115 942 -116 920 -116 c 0
 738 -116 675 -90 675 149 c 2
 675 229 l 2
 675 441 549 544 406 589 c 1
 406 608 l 1
 580 664 675 775 675 1021 c 2
 675 1081 l 2
 675 1284 756 1313 930 1313 c 2
 997 1313 l 1
 997 1524 l 1
 843 1524 l 2
 564 1524 352 1483 352 1195 c 2
 352 1014 l 2
 352 785 261 712 15 712 c 1
 15 485 l 1
 261 485 352 402 352 182 c 2
 352 44 l 2
 352 -276 546 -328 854 -328 c 0
EndSplineSet
EndChar

StartChar: braceright
Encoding: 125 125 144
Width: 1077
VWidth: 0
Flags: W
LayerCount: 2
Fore
SplineSet
15 -328 m 1
 169 -328 l 2
 448 -328 659 -287 659 1 c 2
 659 182 l 2
 659 411 751 485 997 485 c 1
 997 710 l 1
 751 710 659 794 659 1014 c 2
 659 1151 l 2
 659 1471 466 1524 158 1524 c 0
 140 1524 15 1523 15 1523 c 1
 15 1312 l 1
 92 1312 l 2
 274 1312 336 1286 336 1047 c 2
 336 966 l 2
 336 754 464 653 607 608 c 1
 607 589 l 1
 433 533 336 423 336 177 c 2
 336 117 l 2
 336 -86 256 -117 82 -117 c 2
 15 -117 l 1
 15 -328 l 1
EndSplineSet
EndChar

StartChar: bracketleft
Encoding: 91 91 145
Width: 839
VWidth: 0
Flags: W
LayerCount: 2
Fore
SplineSet
145 -326 m 1
 741 -326 l 1
 741 -102 l 1
 454 -102 l 1
 454 1299 l 1
 741 1299 l 1
 741 1524 l 1
 145 1524 l 1
 145 -326 l 1
EndSplineSet
EndChar

StartChar: bracketright
Encoding: 93 93 146
Width: 839
VWidth: 0
Flags: W
LayerCount: 2
Fore
SplineSet
99 -326 m 1
 697 -326 l 1
 697 1524 l 1
 99 1524 l 1
 99 1299 l 1
 387 1299 l 1
 387 -102 l 1
 99 -102 l 1
 99 -326 l 1
EndSplineSet
EndChar

StartChar: breve
Encoding: 728 728 147
Width: 842
VWidth: 0
Flags: W
LayerCount: 2
Fore
SplineSet
426 1151 m 0
 638 1151 772 1266 775 1481 c 1
 594 1481 l 1
 587 1384 537 1317 426 1317 c 0
 302 1317 266 1387 257 1481 c 1
 77 1481 l 1
 80 1266 198 1151 426 1151 c 0
EndSplineSet
EndChar

StartChar: brokenbar
Encoding: 166 166 148
Width: 427
VWidth: 0
Flags: W
LayerCount: 2
Fore
SplineSet
102 -338 m 1
 326 -338 l 1
 326 338 l 1
 102 338 l 1
 102 -338 l 1
102 629 m 1
 326 629 l 1
 326 1305 l 1
 102 1305 l 1
 102 629 l 1
EndSplineSet
EndChar

StartChar: bullet
Encoding: 8226 8226 149
Width: 1242
VWidth: 0
Flags: W
LayerCount: 2
Fore
SplineSet
622 205 m 0
 879 205 1095 409 1095 656 c 0
 1095 902 881 1105 622 1105 c 0
 367 1105 150 902 150 656 c 0
 150 410 365 205 622 205 c 0
EndSplineSet
EndChar

StartChar: c
Encoding: 99 99 150
Width: 1077
VWidth: 0
Flags: W
LayerCount: 2
Fore
SplineSet
649 -24 m 0
 792 -24 921 21 1028 80 c 1
 976 328 l 1
 896 262 803 222 679 222 c 0
 539 222 427 297 427 515 c 0
 427 732 545 817 690 817 c 0
 778 817 886 775 975 705 c 1
 1026 955 l 1
 891 1030 765 1059 641 1059 c 0
 365 1059 81 916 81 516 c 0
 81 139 343 -24 649 -24 c 0
EndSplineSet
EndChar

StartChar: caron
Encoding: 711 711 152
Width: 842
VWidth: 0
Flags: W
LayerCount: 2
Fore
SplineSet
308 1175 m 1
 533 1175 l 1
 846 1516 l 1
 588 1516 l 1
 423 1332 l 1
 255 1516 l 1
 -5 1516 l 1
 308 1175 l 1
EndSplineSet
EndChar

StartChar: cedilla
Encoding: 184 184 157
Width: 936
VWidth: 0
Flags: W
LayerCount: 2
Fore
SplineSet
406 -516 m 0
 603 -516 716 -405 716 -279 c 0
 716 -193 656 -97 472 -97 c 1
 512 2 l 1
 408 2 l 1
 341 -184 l 1
 357 -187 376 -192 391 -196 c 1
 406 -193 418 -191 431 -191 c 0
 495 -191 545 -229 545 -280 c 0
 545 -337 495 -385 408 -385 c 0
 367 -385 317 -367 301 -341 c 1
 300 -342 240 -341 240 -341 c 1
 214 -473 l 1
 265 -497 355 -516 406 -516 c 0
EndSplineSet
EndChar

StartChar: cent
Encoding: 162 162 158
Width: 1172
VWidth: 0
Flags: W
LayerCount: 2
Fore
SplineSet
569 -292 m 1
 716 -292 l 1
 716 1313 l 1
 569 1313 l 1
 569 -292 l 1
EndSplineSet
Refer: 150 99 N 1 0 0 1 0 0 2
EndChar

StartChar: circumflex
Encoding: 710 710 159
Width: 842
VWidth: 0
Flags: W
LayerCount: 2
Fore
SplineSet
15 1172 m 1
 273 1172 l 1
 422 1350 l 1
 568 1172 l 1
 831 1172 l 1
 541 1516 l 1
 304 1516 l 1
 15 1172 l 1
EndSplineSet
EndChar

StartChar: colon
Encoding: 58 58 160
Width: 598
VWidth: 0
Flags: W
LayerCount: 2
Fore
SplineSet
297 0 m 0
 409 0 501 90 501 202 c 0
 501 314 409 404 297 404 c 0
 185 404 95 314 95 202 c 0
 95 90 185 0 297 0 c 0
297 630 m 0
 409 630 501 720 501 832 c 0
 501 944 409 1035 297 1035 c 0
 185 1035 95 944 95 832 c 0
 95 720 185 630 297 630 c 0
EndSplineSet
EndChar

StartChar: comma
Encoding: 44 44 161
Width: 551
VWidth: 0
Flags: W
LayerCount: 2
Fore
SplineSet
105 -235 m 1
 276 -235 l 1
 502 338 l 1
 165 338 l 1
 105 -235 l 1
EndSplineSet
EndChar

StartChar: copyright
Encoding: 169 169 162
Width: 1846
VWidth: 0
Flags: W
LayerCount: 2
Fore
SplineSet
957 234 m 0
 1074 234 1204 286 1240 319 c 1
 1194 450 l 1
 1194 450 1104 380 966 380 c 0
 778 380 688 519 688 687 c 0
 688 861 797 1001 978 1001 c 0
 1121 1001 1222 907 1222 907 c 1
 1279 1036 l 1
 1199 1092 1100 1144 959 1144 c 0
 697 1144 502 965 502 687 c 0
 502 408 710 234 957 234 c 0
925 51 m 0
 558 51 276 312 276 681 c 0
 276 1035 542 1312 925 1312 c 0
 1296 1312 1582 1052 1582 685 c 0
 1582 321 1310 51 925 51 c 0
925 -115 m 0
 1399 -115 1765 229 1765 681 c 0
 1765 1138 1387 1476 925 1476 c 0
 451 1476 83 1133 83 681 c 0
 83 204 469 -115 925 -115 c 0
EndSplineSet
EndChar

StartChar: currency
Encoding: 164 164 163
Width: 926
VWidth: 0
Flags: W
LayerCount: 2
Fore
SplineSet
133 253 m 1
 227 348 l 1
 280 307 373 273 468 273 c 0
 562 273 647 304 704 348 c 1
 799 253 l 1
 900 353 l 1
 806 448 l 1
 849 501 884 593 884 688 c 0
 884 782 849 874 806 930 c 1
 900 1024 l 1
 799 1123 l 1
 704 1032 l 1
 647 1075 562 1105 468 1105 c 0
 373 1105 280 1073 227 1030 c 1
 133 1123 l 1
 30 1024 l 1
 124 930 l 1
 80 874 49 782 49 688 c 0
 49 594 81 501 124 450 c 1
 30 353 l 1
 133 253 l 1
468 411 m 0
 309 411 201 517 201 688 c 0
 201 859 309 966 468 966 c 0
 627 966 731 859 731 688 c 0
 731 517 627 411 468 411 c 0
EndSplineSet
EndChar

StartChar: d
Encoding: 100 100 164
Width: 1249
VWidth: 0
Flags: W
LayerCount: 2
Fore
SplineSet
510 -20 m 0
 631 -20 714 13 793 77 c 1
 793 0 l 1
 1133 0 l 1
 1133 1437 l 1
 793 1437 l 1
 793 961 l 1
 711 1018 624 1059 514 1059 c 0
 213 1059 81 855 81 529 c 0
 81 211 233 -20 510 -20 c 0
654 224 m 0
 500 224 426 344 426 510 c 0
 426 689 473 812 599 812 c 0
 645 812 719 795 793 759 c 1
 793 244 l 1
 747 229 690 224 654 224 c 0
EndSplineSet
EndChar

StartChar: dagger
Encoding: 8224 8224 165
Width: 1183
VWidth: 0
Flags: W
LayerCount: 2
Fore
SplineSet
462 -49 m 1
 720 -49 l 1
 720 819 l 1
 1063 819 l 1
 1063 1027 l 1
 721 1027 l 1
 721 1438 l 1
 465 1438 l 1
 465 1029 l 1
 122 1029 l 1
 122 822 l 1
 462 822 l 1
 462 -49 l 1
EndSplineSet
EndChar

StartChar: daggerdbl
Encoding: 8225 8225 166
Width: 1183
VWidth: 0
Flags: W
LayerCount: 2
Fore
SplineSet
463 -47 m 1
 720 -47 l 1
 720 334 l 1
 1063 334 l 1
 1063 541 l 1
 718 541 l 1
 718 858 l 1
 1063 858 l 1
 1063 1066 l 1
 721 1066 l 1
 721 1438 l 1
 465 1438 l 1
 465 1069 l 1
 122 1069 l 1
 122 861 l 1
 468 861 l 1
 468 544 l 1
 122 544 l 1
 122 336 l 1
 463 336 l 1
 463 -47 l 1
EndSplineSet
EndChar

StartChar: dcroat
Encoding: 273 273 168
Width: 1249
VWidth: 0
Flags: W
LayerCount: 2
Fore
SplineSet
510 -20 m 0
 631 -20 714 13 793 77 c 1
 793 0 l 1
 1133 0 l 1
 1133 1437 l 1
 793 1437 l 1
 793 961 l 1
 711 1018 624 1059 514 1059 c 0
 213 1059 81 855 81 529 c 0
 81 211 233 -20 510 -20 c 0
654 224 m 0
 500 224 426 344 426 510 c 0
 426 689 473 812 599 812 c 0
 645 812 719 795 793 759 c 1
 793 244 l 1
 747 229 690 224 654 224 c 0
EndSplineSet
EndChar

StartChar: degree
Encoding: 176 176 169
Width: 953
VWidth: 0
Flags: W
LayerCount: 2
Fore
SplineSet
478 871 m 0
 363 871 269 960 269 1075 c 0
 269 1185 362 1279 478 1279 c 0
 594 1279 687 1185 687 1075 c 0
 687 963 595 871 478 871 c 0
478 764 m 0
 660 764 806 901 806 1075 c 0
 806 1248 660 1384 478 1384 c 0
 297 1384 151 1249 151 1075 c 0
 151 902 296 764 478 764 c 0
EndSplineSet
EndChar

StartChar: dieresis
Encoding: 168 168 170
Width: 836
VWidth: 0
Flags: W
LayerCount: 2
Fore
SplineSet
108 1176 m 1
 352 1176 l 1
 352 1442 l 1
 108 1442 l 1
 108 1176 l 1
478 1176 m 1
 721 1176 l 1
 721 1442 l 1
 478 1442 l 1
 478 1176 l 1
EndSplineSet
EndChar

StartChar: divide
Encoding: 247 247 171
Width: 1498
VWidth: 0
Flags: W
LayerCount: 2
Fore
SplineSet
749 0 m 0
 861 0 951 90 951 202 c 0
 951 314 861 404 749 404 c 0
 637 404 548 314 548 202 c 0
 548 90 637 0 749 0 c 0
153 496 m 1
 1348 496 l 1
 1348 733 l 1
 153 733 l 1
 153 496 l 1
749 828 m 0
 861 828 951 918 951 1030 c 0
 951 1142 861 1233 749 1233 c 0
 637 1233 548 1142 548 1030 c 0
 548 918 637 828 749 828 c 0
EndSplineSet
EndChar

StartChar: dollar
Encoding: 36 36 172
Width: 1242
VWidth: 0
Flags: W
LayerCount: 2
Fore
SplineSet
538 -318 m 1
 700 -318 l 1
 700 -3 l 1
 997 15 1188 209 1188 437 c 0
 1188 681 1033 792 695 858 c 1
 695 1130 l 1
 810 1125 914 1101 996 1053 c 1
 1047 1053 l 1
 1090 1299 l 1
 1004 1352 820 1396 700 1399 c 1
 700 1590 l 1
 538 1590 l 1
 538 1397 l 1
 252 1366 76 1213 76 999 c 0
 76 693 322 613 542 564 c 1
 542 265 l 1
 411 270 235 327 179 367 c 1
 133 367 l 1
 79 122 l 1
 178 51 400 -5 538 -6 c 1
 538 -318 l 1
707 270 m 0
 702 268 695 267 690 266 c 1
 690 544 l 1
 787 528 824 472 824 411 c 0
 824 334 778 286 707 270 c 0
550 879 m 1
 445 907 435 945 435 1001 c 0
 435 1082 491 1124 550 1129 c 1
 550 879 l 1
EndSplineSet
EndChar

StartChar: dotaccent
Encoding: 729 729 173
Width: 288
VWidth: 0
Flags: W
PickledData: "(dp1
S'com.typemytype.robofont.layerData'
p2
(dp3
s."
LayerCount: 2
Fore
SplineSet
-1 141 m 0
 113 141 206 235 206 347 c 0
 206 460 113 553 -1 553 c 0
 -113 553 -207 460 -207 347 c 0
 -207 235 -113 141 -1 141 c 0
EndSplineSet
EndChar

StartChar: dotlessi
Encoding: 305 305 174
Width: 577
VWidth: 0
Flags: W
LayerCount: 2
Fore
SplineSet
122 0 m 1
 459 0 l 1
 459 1036 l 1
 122 1036 l 1
 122 0 l 1
EndSplineSet
EndChar

StartChar: dotlessj
Encoding: 567 567 175
Width: 655
VWidth: 0
Flags: W
LayerCount: 2
Fore
SplineSet
138 -396 m 0
 369 -396 531 -276 531 -56 c 2
 531 1036 l 1
 193 1036 l 1
 193 86 l 2
 193 -118 128 -148 26 -148 c 0
 -5 -148 -40 -143 -76 -140 c 1
 -76 -382 l 1
 -44 -385 35 -396 138 -396 c 0
EndSplineSet
EndChar

StartChar: e
Encoding: 101 101 176
Width: 1171
VWidth: 0
Flags: W
LayerCount: 2
Fore
SplineSet
683 -24 m 0
 897 -24 1019 33 1099 90 c 1
 1053 306 l 1
 1010 306 l 1
 935 260 821 218 714 218 c 0
 555 218 436 269 423 440 c 1
 1116 440 l 1
 1116 581 l 2
 1116 887 938 1059 632 1059 c 0
 304 1059 82 872 82 514 c 0
 82 140 322 -24 683 -24 c 0
423 643 m 1
 426 774 496 843 608 843 c 0
 718 843 781 776 786 643 c 1
 423 643 l 1
EndSplineSet
EndChar

StartChar: eight
Encoding: 56 56 183
Width: 1430
VWidth: 0
Flags: W
LayerCount: 2
Fore
SplineSet
716 -26 m 0
 1080 -26 1297 161 1297 420 c 0
 1297 586 1219 716 1040 795 c 1
 1200 868 1258 1045 1255 1154 c 1
 1239 1352 1065 1506 718 1506 c 0
 366 1506 173 1312 173 1095 c 0
 173 988 225 828 385 746 c 1
 222 672 136 571 136 411 c 0
 136 164 329 -26 716 -26 c 0
731 241 m 0
 600 241 506 322 506 450 c 0
 506 544 570 619 631 649 c 1
 919 618 924 467 924 410 c 0
 924 293 805 241 731 241 c 0
797 893 m 1
 620 950 548 973 548 1096 c 0
 548 1181 625 1241 720 1241 c 0
 823 1241 893 1177 893 1078 c 0
 893 988 848 933 797 893 c 1
EndSplineSet
EndChar

StartChar: emdash
Encoding: 8212 8212 186
Width: 1841
VWidth: 0
Flags: W
LayerCount: 2
Fore
SplineSet
-44 470 m 1
 1888 470 l 1
 1888 716 l 1
 -44 716 l 1
 -44 470 l 1
EndSplineSet
EndChar

StartChar: endash
Encoding: 8211 8211 187
Width: 1192
VWidth: 0
Flags: W
LayerCount: 2
Fore
SplineSet
-44 470 m 1
 1238 470 l 1
 1238 716 l 1
 -44 716 l 1
 -44 470 l 1
EndSplineSet
EndChar

StartChar: equal
Encoding: 61 61 189
Width: 1499
VWidth: 0
Flags: W
LayerCount: 2
Fore
SplineSet
171 228 m 1
 1332 228 l 1
 1332 464 l 1
 171 464 l 1
 171 228 l 1
171 688 m 1
 1332 688 l 1
 1332 924 l 1
 171 924 l 1
 171 688 l 1
EndSplineSet
EndChar

StartChar: estimated
Encoding: 8494 8494 190
Width: 1688
VWidth: 0
Flags: W
LayerCount: 2
Fore
SplineSet
843 -10 m 0
 1094 -10 1319 95 1457 260 c 1
 1348 260 l 1
 1224 119 1046 30 845 30 c 0
 658 30 489 109 367 235 c 0
 357 246 352 263 352 279 c 2
 352 661 l 2
 352 667 357 669 362 669 c 2
 1621 669 l 1
 1621 687 l 2
 1621 1076 1275 1389 843 1389 c 0
 414 1389 66 1076 66 687 c 0
 66 302 414 -10 843 -10 c 0
362 706 m 2
 357 706 352 715 352 720 c 2
 352 1092 l 2
 352 1112 358 1130 369 1141 c 0
 491 1265 661 1346 845 1346 c 0
 1032 1346 1194 1267 1318 1146 c 0
 1329 1135 1336 1117 1336 1101 c 2
 1336 720 l 2
 1336 715 1334 706 1329 706 c 2
 362 706 l 2
EndSplineSet
EndChar

StartChar: eth
Encoding: 240 240 191
Width: 965
VWidth: 0
Flags: W
LayerCount: 2
Fore
SplineSet
635 -24 m 0
 969 -24 1184 186 1184 557 c 0
 1184 955 1039 1225 759 1366 c 1
 827 1473 l 1
 715 1535 l 1
 638 1417 l 1
 534 1452 415 1473 282 1480 c 1
 224 1220 l 1
 321 1210 405 1198 479 1172 c 1
 418 1078 l 1
 532 1012 l 1
 597 1115 l 1
 671 1066 722 992 752 887 c 1
 682 928 595 959 500 959 c 0
 247 959 88 802 88 496 c 0
 88 173 304 -24 635 -24 c 0
645 233 m 0
 485 233 459 329 459 483 c 0
 459 644 535 697 638 697 c 0
 820 697 825 604 825 477 c 0
 825 341 768 233 645 233 c 0
EndSplineSet
EndChar

StartChar: exclam
Encoding: 33 33 192
Width: 637
VWidth: 0
Flags: W
LayerCount: 2
Fore
SplineSet
334 -22 m 0
 448 -22 541 72 541 184 c 0
 541 297 448 390 334 390 c 0
 222 390 128 297 128 184 c 0
 128 72 222 -22 334 -22 c 0
236 531 m 1
 434 531 l 1
 527 1481 l 1
 138 1481 l 1
 236 531 l 1
EndSplineSet
EndChar

StartChar: f
Encoding: 102 102 194
Width: 726
VWidth: 0
Flags: W
LayerCount: 2
Fore
SplineSet
155 0 m 1
 492 0 l 1
 492 813 l 1
 718 813 l 1
 718 1036 l 1
 483 1036 l 1
 483 1171 528 1200 610 1200 c 0
 647 1200 693 1195 746 1190 c 1
 746 1430 l 1
 690 1436 619 1443 545 1443 c 0
 277 1443 155 1327 155 1076 c 2
 155 1036 l 1
 26 1036 l 1
 26 813 l 1
 155 813 l 1
 155 0 l 1
EndSplineSet
EndChar

StartChar: f_i
Encoding: 65536 -1 195
Width: 1288
VWidth: 0
Flags: W
LayerCount: 2
Fore
SplineSet
152 0 m 1
 489 0 l 1
 489 813 l 1
 832 813 l 1
 832 0 l 1
 1171 0 l 1
 1171 1036 l 1
 481 1036 l 1
 481 1171 526 1200 608 1200 c 0
 645 1200 670 1195 723 1190 c 1
 723 1430 l 1
 667 1436 616 1443 542 1443 c 0
 274 1443 152 1327 152 1076 c 2
 152 1036 l 1
 22 1036 l 1
 22 813 l 1
 152 813 l 1
 152 0 l 1
1001 1177 m 0
 1132 1177 1197 1270 1197 1364 c 0
 1197 1458 1132 1554 1001 1554 c 0
 870 1554 805 1459 805 1365 c 0
 805 1271 870 1177 1001 1177 c 0
EndSplineSet
EndChar

StartChar: f_l
Encoding: 65537 -1 196
Width: 1339
VWidth: 0
Flags: W
LayerCount: 2
Fore
SplineSet
152 0 m 1
 489 0 l 1
 489 813 l 1
 714 813 l 1
 714 1036 l 1
 481 1036 l 1
 481 1171 554 1200 636 1200 c 0
 673 1200 778 1195 831 1190 c 1
 831 356 l 2
 831 174 830 0 1224 0 c 2
 1307 0 l 1
 1307 227 l 1
 1171 227 1168 299 1168 356 c 2
 1168 1396 l 1
 1168 1396 746 1443 569 1443 c 0
 301 1443 152 1327 152 1076 c 2
 152 1036 l 1
 22 1036 l 1
 22 813 l 1
 152 813 l 1
 152 0 l 1
EndSplineSet
EndChar

StartChar: five
Encoding: 53 53 197
Width: 1242
VWidth: 0
Flags: W
LayerCount: 2
Fore
SplineSet
592 -24 m 0
 957 -24 1199 140 1199 489 c 0
 1199 835 862 926 668 944 c 0
 624 948 501 958 501 959 c 2
 501 1197 l 1
 1083 1197 l 1
 1083 1481 l 1
 143 1481 l 1
 143 746 l 1
 143 746 413 723 510 713 c 0
 646 700 819 639 819 483 c 0
 819 334 721 271 542 271 c 0
 373 271 207 371 189 411 c 1
 116 411 l 1
 116 120 l 1
 211 32 375 -24 592 -24 c 0
EndSplineSet
EndChar

StartChar: florin
Encoding: 402 402 198
Width: 1175
VWidth: 0
Flags: W
LayerCount: 2
Fore
SplineSet
218 -241 m 0
 452 -241 636 -133 683 173 c 1
 756 637 l 1
 1001 637 l 1
 1009 838 l 1
 789 838 l 1
 806 980 l 1
 819 1070 837 1161 968 1161 c 0
 1024 1161 1087 1146 1107 1144 c 1
 1118 1405 l 1
 1062 1416 999 1420 950 1420 c 0
 735 1420 527 1360 474 1022 c 1
 446 838 l 1
 276 838 l 1
 268 637 l 1
 417 637 l 1
 369 322 l 1
 359 195 319 16 194 16 c 0
 130 16 77 36 47 36 c 1
 35 -224 l 1
 78 -234 167 -241 218 -241 c 0
EndSplineSet
EndChar

StartChar: four
Encoding: 52 52 199
Width: 1244
VWidth: 0
Flags: W
LayerCount: 2
Fore
SplineSet
692 0 m 1
 1063 0 l 1
 1063 217 l 1
 1207 217 l 1
 1207 452 l 1
 1063 452 l 1
 1063 1481 l 1
 569 1481 l 1
 62 452 l 1
 62 217 l 1
 692 217 l 1
 692 0 l 1
355 452 m 1
 692 1164 l 1
 692 452 l 1
 355 452 l 1
EndSplineSet
EndChar

StartChar: fraction
Encoding: 8260 8260 200
Width: 726
VWidth: 0
Flags: W
LayerCount: 2
Fore
SplineSet
-173 -13 m 1
 89 -13 l 1
 889 1409 l 1
 629 1409 l 1
 -173 -13 l 1
EndSplineSet
EndChar

StartChar: g
Encoding: 103 103 201
Width: 1201
VWidth: 0
Flags: W
LayerCount: 2
Fore
SplineSet
553 -402 m 0
 848 -402 1102 -284 1102 88 c 2
 1102 1036 l 1
 753 1036 l 1
 756 917 l 1
 682 1022 593 1059 485 1059 c 0
 213 1059 81 851 81 540 c 0
 81 185 188 6 507 6 c 0
 596 6 700 51 764 110 c 1
 764 99 l 1
 762 -80 709 -151 504 -151 c 0
 409 -151 296 -112 218 -76 c 1
 163 -312 l 1
 258 -361 401 -402 553 -402 c 0
614 249 m 0
 469 249 426 336 426 546 c 0
 426 707 502 808 630 808 c 0
 666 808 713 801 756 783 c 1
 756 299 l 1
 717 271 670 249 614 249 c 0
EndSplineSet
EndChar

StartChar: germandbls
Encoding: 223 223 206
Width: 1235
VWidth: 0
Flags: W
LayerCount: 2
Fore
SplineSet
702 -5 m 0
 1049 -5 1244 160 1244 459 c 0
 1244 622 1101 814 868 861 c 1
 868 874 l 1
 1003 896 1123 1009 1123 1164 c 0
 1123 1362 935 1504 625 1504 c 0
 287 1504 117 1334 117 1030 c 2
 117 0 l 1
 456 0 l 1
 456 1055 l 2
 456 1173 488 1266 645 1266 c 0
 750 1266 792 1221 792 1126 c 0
 792 998 698 975 601 975 c 1
 601 716 l 1
 787 716 901 608 901 473 c 0
 901 328 812 255 638 255 c 0
 627 255 615 254 604 255 c 1
 604 -1 l 1
 647 -2 684 -5 702 -5 c 0
EndSplineSet
EndChar

StartChar: grave
Encoding: 96 96 207
Width: 844
VWidth: 0
Flags: W
LayerCount: 2
Fore
SplineSet
437 1169 m 1
 673 1169 l 1
 470 1516 l 1
 140 1516 l 1
 437 1169 l 1
EndSplineSet
EndChar

StartChar: greater
Encoding: 62 62 208
Width: 1499
VWidth: 0
Flags: W
LayerCount: 2
Fore
SplineSet
153 -15 m 1
 1374 471 l 1
 1374 679 l 1
 153 1164 l 1
 153 917 l 1
 1023 575 l 1
 153 234 l 1
 153 -15 l 1
EndSplineSet
EndChar

StartChar: greaterequal
Encoding: 8805 8805 209
Width: 1499
VWidth: 0
Flags: W
LayerCount: 2
Fore
SplineSet
246 268 m 1
 1296 622 l 1
 1296 829 l 1
 246 1183 l 1
 246 935 l 1
 947 725 l 1
 246 517 l 1
 246 268 l 1
246 1 m 1
 1296 1 l 1
 1296 179 l 1
 246 179 l 1
 246 1 l 1
EndSplineSet
EndChar

StartChar: guillemotleft
Encoding: 171 171 210
Width: 1065
VWidth: 0
Flags: W
LayerCount: 2
Fore
SplineSet
557 135 m 1
 557 418 l 1
 369 594 l 1
 557 775 l 1
 557 1054 l 1
 149 667 l 1
 149 522 l 1
 557 135 l 1
966 135 m 1
 966 418 l 1
 778 594 l 1
 966 775 l 1
 966 1054 l 1
 557 667 l 1
 557 522 l 1
 966 135 l 1
EndSplineSet
EndChar

StartChar: guillemotright
Encoding: 187 187 211
Width: 1065
VWidth: 0
Flags: W
LayerCount: 2
Fore
SplineSet
149 135 m 1
 557 522 l 1
 557 665 l 1
 149 1054 l 1
 149 769 l 1
 338 595 l 1
 149 413 l 1
 149 135 l 1
557 135 m 1
 966 522 l 1
 966 665 l 1
 557 1054 l 1
 557 769 l 1
 746 595 l 1
 557 413 l 1
 557 135 l 1
EndSplineSet
EndChar

StartChar: guilsinglleft
Encoding: 8249 8249 212
Width: 751
VWidth: 0
Flags: W
LayerCount: 2
Fore
SplineSet
652 135 m 1
 652 418 l 1
 576 479 502 535 425 594 c 1
 652 775 l 1
 652 1054 l 1
 652 1054 252 733 149 648 c 1
 149 531 l 1
 252 455 652 135 652 135 c 1
EndSplineSet
EndChar

StartChar: guilsinglright
Encoding: 8250 8250 213
Width: 751
VWidth: 0
Flags: W
LayerCount: 2
Fore
SplineSet
149 135 m 1
 149 135 549 455 652 540 c 1
 652 656 l 1
 549 732 149 1054 149 1054 c 1
 149 769 l 1
 225 708 297 654 374 595 c 1
 149 413 l 1
 149 135 l 1
EndSplineSet
EndChar

StartChar: h
Encoding: 104 104 214
Width: 1206
VWidth: 0
Flags: W
LayerCount: 2
Fore
SplineSet
119 0 m 1
 456 0 l 1
 456 700 l 2
 456 762 533 785 614 785 c 0
 736 785 767 716 767 556 c 2
 767 0 l 1
 1108 0 l 1
 1108 681 l 2
 1108 927 967 1059 766 1059 c 0
 556 1059 456 869 456 869 c 1
 456 1435 l 1
 119 1435 l 1
 119 0 l 1
EndSplineSet
EndChar

StartChar: hungarumlaut
Encoding: 733 733 217
Width: 840
VWidth: 0
Flags: W
LayerCount: 2
Fore
SplineSet
62 1169 m 1
 297 1169 l 1
 596 1516 l 1
 265 1516 l 1
 62 1169 l 1
506 1169 m 1
 740 1169 l 1
 1040 1516 l 1
 707 1516 l 1
 506 1169 l 1
EndSplineSet
EndChar

StartChar: hyphen
Encoding: 45 45 218
Width: 839
VWidth: 0
Flags: W
LayerCount: 2
Fore
SplineSet
95 462 m 1
 745 462 l 1
 745 725 l 1
 95 725 l 1
 95 462 l 1
EndSplineSet
EndChar

StartChar: i
Encoding: 105 105 219
Width: 577
VWidth: 0
Flags: W
LayerCount: 2
Fore
SplineSet
122 0 m 1
 459 0 l 1
 459 1036 l 1
 122 1036 l 1
 122 0 l 1
290 1177 m 0
 421 1177 487 1270 487 1364 c 0
 487 1458 421 1554 290 1554 c 0
 159 1554 94 1459 94 1365 c 0
 94 1271 159 1177 290 1177 c 0
EndSplineSet
EndChar

StartChar: infinity
Encoding: 8734 8734 227
Width: 1504
VWidth: 0
Flags: W
LayerCount: 2
Fore
SplineSet
1101 204 m 0
 1285 204 1437 355 1437 555 c 0
 1437 763 1299 903 1105 904 c 0
 956 904 846 814 756 683 c 1
 664 826 554 909 411 909 c 0
 221 909 74 756 74 562 c 0
 74 352 218 210 408 210 c 0
 551 210 659 291 754 431 c 1
 856 274 968 204 1101 204 c 0
429 377 m 0
 326 377 253 453 253 558 c 0
 253 663 322 745 425 745 c 0
 522 745 598 671 670 556 c 1
 599 448 523 377 429 377 c 0
1085 371 m 0
 996 371 924 429 841 555 c 1
 907 657 989 739 1083 739 c 0
 1185 739 1255 661 1255 553 c 0
 1255 456 1187 371 1085 371 c 0
EndSplineSet
EndChar

StartChar: integral
Encoding: 8747 8747 228
Width: 957
VWidth: 0
Flags: W
LayerCount: 2
Fore
SplineSet
264 -390 m 0
 521 -390 648 -247 648 71 c 2
 648 1016 l 2
 648 1156 654 1279 778 1279 c 0
 809 1279 874 1264 874 1264 c 1
 901 1455 l 1
 868 1466 756 1482 700 1482 c 0
 474 1482 319 1333 319 1063 c 2
 319 30 l 2
 319 -149 268 -184 182 -184 c 0
 151 -184 87 -168 87 -168 c 1
 57 -354 l 1
 92 -367 207 -390 264 -390 c 0
EndSplineSet
EndChar

StartChar: j
Encoding: 106 106 231
Width: 655
VWidth: 0
Flags: W
LayerCount: 2
Fore
SplineSet
138 -396 m 0
 369 -396 531 -276 531 -56 c 2
 531 1036 l 1
 193 1036 l 1
 193 86 l 2
 193 -118 128 -148 26 -148 c 0
 -5 -148 -40 -143 -76 -140 c 1
 -76 -382 l 1
 -44 -385 35 -396 138 -396 c 0
364 1173 m 0
 495 1173 558 1265 558 1359 c 0
 558 1453 495 1546 364 1546 c 0
 233 1546 168 1453 168 1359 c 0
 168 1265 233 1173 364 1173 c 0
EndSplineSet
EndChar

StartChar: k
Encoding: 107 107 233
Width: 1188
VWidth: 0
Flags: W
LayerCount: 2
Fore
SplineSet
119 0 m 1
 459 0 l 1
 459 362 l 1
 547 459 l 1
 821 0 l 1
 1175 0 l 1
 1175 78 l 1
 825 614 l 1
 1154 992 l 1
 1154 1036 l 1
 792 1036 l 1
 459 635 l 1
 459 635 l 1
 459 1437 l 1
 119 1437 l 1
 119 0 l 1
EndSplineSet
EndChar

StartChar: kgreenlandic
Encoding: 312 312 235
Width: 1188
VWidth: 0
Flags: W
LayerCount: 2
Fore
SplineSet
119 0 m 1
 459 0 l 1
 459 346 l 1
 547 444 l 1
 821 0 l 1
 1175 0 l 1
 1175 78 l 1
 825 598 l 1
 1154 992 l 1
 1154 1036 l 1
 792 1036 l 1
 459 619 l 1
 459 619 l 1
 459 1044 l 1
 119 1044 l 1
 119 0 l 1
EndSplineSet
EndChar

StartChar: l
Encoding: 108 108 236
Width: 631
VWidth: 0
Flags: W
LayerCount: 2
Fore
SplineSet
511 0 m 2
 595 0 l 1
 595 227 l 1
 459 227 456 299 456 356 c 2
 456 1435 l 1
 119 1435 l 1
 119 356 l 2
 119 174 117 0 511 0 c 2
EndSplineSet
EndChar

StartChar: less
Encoding: 60 60 241
Width: 1499
VWidth: 0
Flags: W
LayerCount: 2
Fore
SplineSet
1350 -15 m 1
 1350 234 l 1
 1350 234 529 551 446 583 c 1
 538 613 1350 917 1350 917 c 1
 1350 1164 l 1
 128 679 l 1
 128 472 l 1
 1350 -15 l 1
EndSplineSet
EndChar

StartChar: lessequal
Encoding: 8804 8804 242
Width: 1499
VWidth: 0
Flags: W
LayerCount: 2
Fore
SplineSet
1296 268 m 1
 1296 517 l 1
 595 725 l 1
 1296 935 l 1
 1296 1183 l 1
 246 830 l 1
 246 623 l 1
 1296 268 l 1
246 1 m 1
 1296 1 l 1
 1296 179 l 1
 246 179 l 1
 246 1 l 1
EndSplineSet
EndChar

StartChar: logicalnot
Encoding: 172 172 243
Width: 1498
VWidth: 0
Flags: W
LayerCount: 2
Fore
SplineSet
1083 99 m 1
 1343 99 l 1
 1343 780 l 1
 153 780 l 1
 153 545 l 1
 1083 545 l 1
 1083 99 l 1
EndSplineSet
EndChar

StartChar: lozenge
Encoding: 9674 9674 244
Width: 1131
VWidth: 0
Flags: W
LayerCount: 2
Fore
SplineSet
450 -30 m 1
 673 -30 l 1
 1062 673 l 1
 677 1377 l 1
 454 1377 l 1
 69 672 l 1
 450 -30 l 1
564 177 m 1
 306 674 l 1
 568 1169 l 1
 826 671 l 1
 564 177 l 1
EndSplineSet
EndChar

StartChar: lslash
Encoding: 322 322 245
Width: 628
VWidth: 0
Flags: W
LayerCount: 2
Fore
SplineSet
512 0 m 2
 595 0 l 1
 595 227 l 1
 459 227 457 299 457 356 c 2
 457 776 l 1
 594 858 l 1
 594 1035 l 1
 457 951 l 1
 457 1435 l 1
 120 1435 l 1
 120 745 l 1
 0 672 l 1
 0 496 l 1
 120 569 l 1
 120 356 l 2
 120 174 118 0 512 0 c 2
EndSplineSet
EndChar

StartChar: m
Encoding: 109 109 246
Width: 1815
VWidth: 0
Flags: W
LayerCount: 2
Fore
SplineSet
119 0 m 1
 456 0 l 1
 456 688 l 2
 456 747 531 781 592 781 c 0
 706 781 746 725 746 558 c 2
 746 0 l 1
 1083 0 l 1
 1083 688 l 2
 1083 727 1164 781 1221 781 c 0
 1345 781 1380 720 1380 533 c 2
 1380 0 l 1
 1718 0 l 1
 1718 681 l 1
 1719 946 1570 1059 1389 1059 c 0
 1267 1059 1139 1001 1049 879 c 1
 993 1003 893 1059 778 1059 c 0
 650 1059 530 995 456 857 c 1
 456 1036 l 1
 119 1036 l 1
 119 0 l 1
EndSplineSet
EndChar

StartChar: macron
Encoding: 175 175 247
Width: 461
VWidth: 0
Flags: W
LayerCount: 2
Fore
SplineSet
-46 1174 m 1
 510 1174 l 1
 510 1301 l 1
 -46 1301 l 1
 -46 1174 l 1
EndSplineSet
EndChar

StartChar: minus
Encoding: 8722 8722 248
Width: 1158
VWidth: 0
Flags: W
LayerCount: 2
Fore
SplineSet
90 385 m 1
 1073 385 l 1
 1073 641 l 1
 90 641 l 1
 90 385 l 1
EndSplineSet
EndChar

StartChar: mu
Encoding: 956 956 249
Width: 1299
VWidth: 0
Flags: W
LayerCount: 2
Fore
SplineSet
119 -364 m 1
 483 -364 l 1
 483 -24 l 1
 491 -24 498 -24 506 -23 c 0
 628 -16 746 48 811 161 c 1
 813 0 l 1
 1174 0 l 1
 1174 1102 l 1
 813 1102 l 1
 813 339 l 1
 770 293 717 272 657 272 c 0
 516 272 486 356 483 521 c 1
 483 1102 l 1
 119 1102 l 1
 119 -364 l 1
EndSplineSet
EndChar

StartChar: multiply
Encoding: 215 215 250
Width: 1158
VWidth: 0
Flags: W
LayerCount: 2
Fore
SplineSet
235 41 m 1
 581 388 l 1
 924 41 l 1
 1032 148 l 1
 685 490 l 1
 1032 836 l 1
 924 944 l 1
 581 597 l 1
 235 944 l 1
 131 836 l 1
 477 490 l 1
 131 148 l 1
 235 41 l 1
EndSplineSet
EndChar

StartChar: n
Encoding: 110 110 251
Width: 1206
VWidth: 0
Flags: W
LayerCount: 2
Fore
SplineSet
119 0 m 1
 456 0 l 1
 456 688 l 2
 456 762 542 781 604 781 c 0
 744 781 769 693 769 522 c 2
 769 0 l 1
 1108 0 l 1
 1108 694 l 2
 1108 940 939 1059 771 1059 c 0
 626 1059 529 970 456 848 c 1
 456 1036 l 1
 119 1036 l 1
 119 0 l 1
EndSplineSet
EndChar

StartChar: nine
Encoding: 57 57 255
Width: 1242
VWidth: 0
Flags: W
LayerCount: 2
Fore
SplineSet
253 0 m 1
 888 0 1158 366 1164 885 c 1
 1164 1289 950 1503 612 1503 c 0
 281 1503 61 1301 61 983 c 0
 61 627 305 520 474 520 c 0
 530 520 640 532 725 594 c 1
 643 260 195 242 195 242 c 1
 217 164 235 81 253 0 c 1
647 780 m 0
 542 780 439 824 439 1003 c 0
 439 1185 547 1243 608 1243 c 0
 722 1243 786 1146 786 934 c 0
 786 818 715 780 647 780 c 0
EndSplineSet
EndChar

StartChar: notequal
Encoding: 8800 8800 256
Width: 1273
VWidth: 0
Flags: W
LayerCount: 2
Fore
SplineSet
279 51 m 1
 470 39 l 1
 591 272 l 1
 1091 272 l 1
 1091 437 l 1
 672 437 l 1
 791 665 l 1
 1091 665 l 1
 1091 831 l 1
 874 831 l 1
 994 1060 l 1
 802 1073 l 1
 679 831 l 1
 184 831 l 1
 184 665 l 1
 595 665 l 1
 478 437 l 1
 184 437 l 1
 184 272 l 1
 395 272 l 1
 279 51 l 1
EndSplineSet
EndChar

StartChar: numbersign
Encoding: 35 35 258
Width: 1503
VWidth: 0
Flags: W
LayerCount: 2
Fore
SplineSet
226 -2 m 1
 472 -2 l 1
 552 369 l 1
 795 369 l 1
 716 -2 l 1
 961 -2 l 1
 1042 369 l 1
 1335 369 l 1
 1335 593 l 1
 1090 593 l 1
 1162 898 l 1
 1438 898 l 1
 1438 1118 l 1
 1214 1118 l 1
 1292 1481 l 1
 1043 1481 l 1
 966 1118 l 1
 727 1118 l 1
 802 1481 l 1
 554 1481 l 1
 477 1118 l 1
 173 1118 l 1
 173 898 l 1
 427 898 l 1
 354 593 l 1
 69 593 l 1
 69 369 l 1
 305 369 l 1
 226 -2 l 1
602 591 m 1
 674 900 l 1
 918 900 l 1
 846 591 l 1
 602 591 l 1
EndSplineSet
EndChar

StartChar: o
Encoding: 111 111 259
Width: 1232
VWidth: 0
Flags: W
PickledData: "(dp1
S'com.fontlab.hintData'
p2
(dp3
S'vhints'
p4
((dp5
S'position'
p6
I81
sS'width'
p7
I345
s(dp8
g6
I806
sg7
I347
stp9
sS'hhints'
p10
((dp11
g6
I-26
sg7
I244
s(dp12
g6
I818
sg7
I241
stp13
ss."
HStem: -26 244<563 680 563 791> 818 241<563.5 668.5>
VStem: 81 345<390.5 643.5 390.5 694> 806 347<406 639.5>
LayerCount: 2
Fore
SplineSet
619 218 m 0
 507 218 426 265 426 516 c 0
 426 771 512 818 615 818 c 0
 722 818 806 763 806 516 c 0
 806 296 741 218 619 218 c 0
615 -26 m 0
 967 -26 1153 168 1153 517 c 0
 1153 868 967 1059 615 1059 c 0
 263 1059 81 870 81 518 c 0
 81 167 263 -26 615 -26 c 0
EndSplineSet
EndChar

StartChar: oe
Encoding: 339 339 264
Width: 1867
VWidth: 0
Flags: W
LayerCount: 2
Fore
SplineSet
588 -26 m 0
 751 -26 890 51 951 133 c 1
 1021 43 1209 -24 1383 -24 c 0
 1603 -24 1729 34 1810 90 c 1
 1758 325 l 1
 1730 325 l 1
 1688 297 1522 218 1417 218 c 0
 1252 218 1134 273 1121 440 c 1
 1827 440 l 1
 1827 581 l 2
 1827 888 1644 1063 1332 1063 c 0
 1187 1063 1041 1008 959 922 c 1
 883 1024 740 1063 587 1063 c 0
 200 1063 48 874 48 518 c 0
 48 160 203 -26 588 -26 c 0
588 215 m 0
 450 215 393 298 393 516 c 0
 393 782 483 822 585 822 c 0
 720 822 778 738 778 516 c 0
 778 312 724 215 588 215 c 0
1120 643 m 1
 1122 766 1192 843 1312 843 c 0
 1424 843 1485 774 1490 643 c 1
 1120 643 l 1
EndSplineSet
EndChar

StartChar: ogonek
Encoding: 731 731 265
Width: 846
VWidth: 0
Flags: W
LayerCount: 2
Fore
SplineSet
476 -408 m 1
 538 -413 605 -400 669 -377 c 1
 659 -246 l 1
 637 -255 596 -273 540 -273 c 0
 463 -273 419 -223 422 -140 c 1
 426 -93 449 -40 485 5 c 1
 339 5 l 1
 290 -53 245 -132 255 -234 c 1
 271 -336 357 -408 476 -408 c 1
EndSplineSet
EndChar

StartChar: one
Encoding: 49 49 269
Width: 1242
VWidth: 0
Flags: W
LayerCount: 2
Fore
SplineSet
253 0 m 1
 1051 0 l 1
 1051 275 l 1
 841 275 l 1
 841 1482 l 1
 726 1483 609 1481 494 1482 c 1
 464 1361 353 1315 179 1297 c 1
 179 1068 l 1
 470 1116 l 1
 470 275 l 1
 253 275 l 1
 253 0 l 1
EndSplineSet
EndChar

StartChar: one.superior
Encoding: 65538 -1 270
Width: 601
VWidth: 0
Flags: W
LayerCount: 2
Fore
SplineSet
97 555 m 1
 542 555 l 1
 542 708 l 1
 424 708 l 1
 424 1379 l 1
 231 1379 l 1
 215 1313 153 1287 56 1276 c 1
 56 1149 l 1
 218 1177 l 1
 218 708 l 1
 97 708 l 1
 97 555 l 1
EndSplineSet
EndChar

StartChar: onehalf
Encoding: 189 189 271
Width: 1624
VWidth: 0
Flags: W
LayerCount: 2
Fore
SplineSet
338 0 m 1
 465 0 l 1
 1272 1430 l 1
 1144 1430 l 1
 338 0 l 1
EndSplineSet
Refer: 331 -1 N 1 0 0 1 900 -555 2
Refer: 270 -1 N 1 0 0 1 0 0 2
EndChar

StartChar: onequarter
Encoding: 188 188 272
Width: 1551
VWidth: 0
Flags: W
LayerCount: 2
Fore
SplineSet
1184 0 m 1
 1391 0 l 1
 1391 121 l 1
 1470 121 l 1
 1470 249 l 1
 1391 249 l 1
 1391 819 l 1
 1116 819 l 1
 836 249 l 1
 836 121 l 1
 1184 121 l 1
 1184 0 l 1
338 0 m 1
 465 0 l 1
 1272 1430 l 1
 1144 1430 l 1
 338 0 l 1
999 249 m 1
 1184 645 l 1
 1184 249 l 1
 999 249 l 1
EndSplineSet
Refer: 270 -1 N 1 0 0 1 0 0 2
EndChar

StartChar: ordfeminine
Encoding: 170 170 273
Width: 875
VWidth: 0
Flags: W
LayerCount: 2
Fore
SplineSet
281 640 m 0
 373 640 468 674 527 731 c 1
 529 731 l 1
 529 654 l 1
 791 654 l 1
 791 1164 l 2
 791 1353 648 1419 386 1419 c 0
 264 1419 141 1395 92 1362 c 1
 128 1188 l 1
 132 1199 236 1243 339 1243 c 0
 466 1243 529 1220 529 1141 c 1
 270 1113 30 1104 30 865 c 0
 30 705 150 640 281 640 c 0
396 808 m 0
 343 808 295 830 295 887 c 0
 295 972 407 974 529 981 c 1
 529 868 l 1
 509 832 449 808 396 808 c 0
EndSplineSet
EndChar

StartChar: ordmasculine
Encoding: 186 186 274
Width: 931
VWidth: 0
Flags: W
LayerCount: 2
Fore
SplineSet
483 818 m 0
 384 818 334 882 334 1036 c 0
 334 1220 405 1251 478 1251 c 0
 572 1251 621 1190 621 1035 c 0
 621 899 578 818 483 818 c 0
477 643 m 0
 734 643 887 781 887 1036 c 0
 887 1295 735 1430 478 1430 c 0
 223 1430 69 1297 69 1038 c 0
 69 783 218 643 477 643 c 0
EndSplineSet
EndChar

StartChar: oslash
Encoding: 248 248 275
Width: 1163
VWidth: 0
Flags: W
LayerCount: 2
Fore
SplineSet
75 -143 m 1
 234 -143 l 1
 338 15 l 1
 408 -12 488 -26 582 -26 c 0
 934 -26 1118 168 1118 517 c 0
 1118 714 1062 861 948 951 c 1
 1081 1154 l 1
 918 1154 l 1
 830 1017 l 1
 760 1045 677 1059 582 1059 c 0
 230 1059 47 870 47 518 c 0
 47 319 106 173 220 81 c 1
 75 -143 l 1
585 218 m 0
 548 218 514 224 485 240 c 1
 759 661 l 1
 769 622 771 575 771 516 c 0
 771 296 707 218 585 218 c 0
406 366 m 1
 396 405 392 454 392 516 c 0
 392 771 479 818 582 818 c 0
 618 818 653 811 683 792 c 1
 406 366 l 1
EndSplineSet
EndChar

StartChar: p
Encoding: 112 112 277
Width: 1219
VWidth: 0
Flags: W
LayerCount: 2
Fore
SplineSet
119 -391 m 1
 457 -391 l 1
 457 53 l 1
 536 2 608 -22 713 -22 c 0
 990 -22 1139 205 1139 525 c 0
 1139 844 1048 1059 769 1059 c 0
 638 1059 514 990 457 887 c 1
 457 1036 l 1
 119 1036 l 1
 119 -391 l 1
583 224 m 0
 519 224 475 234 457 247 c 1
 457 739 l 1
 494 778 542 799 608 799 c 0
 757 799 793 699 793 522 c 0
 793 340 748 224 583 224 c 0
EndSplineSet
EndChar

StartChar: paragraph
Encoding: 182 182 278
Width: 1262
VWidth: 0
Flags: W
LayerCount: 2
Fore
SplineSet
588 -273 m 1
 793 -273 l 1
 793 1313 l 1
 920 1313 l 1
 920 -273 l 1
 1116 -273 l 1
 1116 1481 l 1
 607 1481 l 2
 236 1481 57 1316 57 1076 c 0
 57 830 240 674 588 668 c 1
 588 -273 l 1
EndSplineSet
EndChar

StartChar: parenleft
Encoding: 40 40 279
Width: 839
VWidth: 0
Flags: W
LayerCount: 2
Fore
SplineSet
470 -339 m 1
 791 -339 l 1
 786 -319 779 -298 775 -278 c 1
 591 -76 427 223 427 592 c 0
 427 972 601 1263 775 1463 c 1
 779 1483 786 1504 791 1524 c 1
 470 1524 l 1
 246 1271 97 996 97 592 c 0
 97 209 248 -86 470 -339 c 1
EndSplineSet
EndChar

StartChar: parenright
Encoding: 41 41 280
Width: 839
VWidth: 0
Flags: W
LayerCount: 2
Fore
SplineSet
51 -339 m 1
 371 -339 l 1
 595 -84 744 214 744 592 c 0
 744 996 597 1271 371 1524 c 1
 51 1524 l 1
 56 1504 63 1485 66 1463 c 1
 239 1266 415 972 415 592 c 0
 415 218 250 -74 66 -278 c 1
 63 -298 56 -319 51 -339 c 1
EndSplineSet
EndChar

StartChar: partialdiff
Encoding: 8706 8706 281
Width: 1104
VWidth: 0
Flags: W
LayerCount: 2
Fore
SplineSet
454 -16 m 0
 795 -16 997 267 1042 713 c 1
 1051 781 1053 848 1050 910 c 0
 1035 1262 879 1440 608 1456 c 0
 472 1465 365 1429 286 1384 c 1
 265 1180 l 1
 341 1226 434 1267 553 1245 c 1
 701 1221 779 1085 779 871 c 0
 779 861 779 840 778 822 c 1
 774 822 l 1
 729 896 644 959 522 959 c 0
 256 959 56 715 56 399 c 0
 56 161 203 -16 454 -16 c 0
483 190 m 0
 384 190 326 271 326 406 c 0
 326 590 435 767 575 767 c 0
 665 767 724 702 748 615 c 1
 722 383 621 190 483 190 c 0
EndSplineSet
EndChar

StartChar: percent
Encoding: 37 37 282
Width: 2136
VWidth: 0
Flags: W
LayerCount: 2
Fore
SplineSet
485 841 m 0
 386 841 339 948 339 1057 c 0
 339 1170 391 1286 485 1286 c 0
 582 1286 629 1180 629 1073 c 0
 629 959 577 841 485 841 c 0
485 641 m 0
 736 641 869 856 869 1071 c 0
 869 1281 744 1484 485 1485 c 1
 225 1482 95 1272 95 1060 c 0
 95 848 226 641 485 641 c 0
551 0 m 1
 808 0 l 1
 1585 1481 l 1
 1328 1481 l 1
 551 0 l 1
1652 198 m 0
 1555 198 1509 304 1509 411 c 0
 1509 524 1559 642 1649 645 c 1
 1746 645 1794 534 1794 424 c 0
 1794 311 1746 198 1652 198 c 0
1652 -3 m 0
 1903 -3 2035 214 2035 429 c 0
 2035 639 1911 841 1652 841 c 1
 1393 838 1263 629 1263 417 c 0
 1263 205 1393 -3 1652 -3 c 0
EndSplineSet
EndChar

StartChar: period
Encoding: 46 46 283
Width: 680
VWidth: 0
Flags: W
LayerCount: 2
Fore
SplineSet
347 -22 m 0
 461 -22 554 72 554 184 c 0
 554 297 461 390 347 390 c 0
 235 390 141 297 141 184 c 0
 141 72 235 -22 347 -22 c 0
EndSplineSet
EndChar

StartChar: periodcentered
Encoding: 183 183 284
Width: 461
VWidth: 0
Flags: W
LayerCount: 2
Fore
SplineSet
232 435 m 0
 304 435 362 492 362 564 c 0
 362 636 304 694 232 694 c 0
 160 694 103 636 103 564 c 0
 103 492 160 435 232 435 c 0
EndSplineSet
EndChar

StartChar: perthousand
Encoding: 8240 8240 285
Width: 2598
VWidth: 0
Flags: W
LayerCount: 2
Fore
SplineSet
415 857 m 0
 323 857 318 933 318 1038 c 0
 318 1160 325 1234 415 1234 c 0
 501 1234 514 1163 514 1052 c 1
 512 914 495 857 415 857 c 0
415 687 m 0
 635 687 736 809 736 1071 c 0
 736 1293 620 1399 415 1399 c 0
 197 1399 90 1282 90 1020 c 0
 90 793 210 687 415 687 c 0
415 0 m 1
 658 0 l 1
 1391 1396 l 1
 1147 1396 l 1
 415 0 l 1
1405 166 m 0
 1313 166 1307 242 1307 347 c 0
 1307 469 1316 542 1405 542 c 0
 1492 542 1503 472 1503 361 c 0
 1502 223 1485 166 1405 166 c 0
1405 -3 m 0
 1627 -3 1726 116 1726 378 c 0
 1726 600 1610 708 1405 708 c 0
 1187 708 1081 590 1081 328 c 0
 1081 101 1200 -3 1405 -3 c 0
2180 166 m 0
 2088 166 2083 242 2083 347 c 0
 2083 469 2090 542 2180 542 c 0
 2267 542 2278 472 2278 361 c 1
 2276 223 2260 166 2180 166 c 0
2180 -3 m 0
 2402 -3 2501 116 2501 378 c 0
 2501 600 2385 708 2180 708 c 0
 1962 708 1857 590 1857 328 c 0
 1857 101 1975 -3 2180 -3 c 0
EndSplineSet
EndChar

StartChar: pi
Encoding: 960 960 286
Width: 1215
VWidth: 0
Flags: W
LayerCount: 2
Fore
SplineSet
157 0 m 1
 417 0 l 1
 443 74 460 183 466 319 c 1
 475 478 481 641 483 782 c 1
 725 782 l 1
 725 326 l 2
 725 139 787 32 922 10 c 1
 962 1 999 2 1035 9 c 1
 1100 155 l 1
 1076 166 1053 189 1035 240 c 1
 1000 251 983 292 983 361 c 2
 983 782 l 1
 1161 782 l 1
 1166 984 l 1
 328 984 l 2
 174 984 77 973 11 925 c 1
 20 725 l 1
 81 762 146 782 227 782 c 1
 226 642 221 487 212 332 c 0
 205 197 187 85 157 0 c 1
EndSplineSet
EndChar

StartChar: plus
Encoding: 43 43 287
Width: 1498
VWidth: 0
Flags: W
LayerCount: 2
Fore
SplineSet
626 9 m 1
 876 9 l 1
 876 457 l 1
 1348 457 l 1
 1348 694 l 1
 876 694 l 1
 876 1141 l 1
 626 1141 l 1
 626 694 l 1
 153 694 l 1
 153 457 l 1
 626 457 l 1
 626 9 l 1
EndSplineSet
EndChar

StartChar: plusminus
Encoding: 177 177 288
Width: 1498
VWidth: 0
Flags: W
LayerCount: 2
Fore
SplineSet
584 280 m 1
 767 280 l 1
 767 617 l 1
 1166 617 l 1
 1166 792 l 1
 767 792 l 1
 767 1130 l 1
 584 1130 l 1
 584 792 l 1
 188 792 l 1
 188 617 l 1
 584 617 l 1
 584 280 l 1
186 0 m 1
 1164 0 l 1
 1164 177 l 1
 186 177 l 1
 186 0 l 1
EndSplineSet
EndChar

StartChar: product
Encoding: 8719 8719 289
Width: 1471
VWidth: 0
Flags: W
LayerCount: 2
Fore
SplineSet
155 -266 m 1
 471 -266 l 1
 471 1175 l 1
 1012 1175 l 1
 1012 -266 l 1
 1328 -266 l 1
 1328 1430 l 1
 155 1430 l 1
 155 -266 l 1
EndSplineSet
EndChar

StartChar: q
Encoding: 113 113 290
Width: 1220
VWidth: 0
Flags: W
LayerCount: 2
Fore
SplineSet
764 -391 m 1
 1102 -391 l 1
 1102 1036 l 1
 764 1036 l 1
 764 915 l 1
 719 1001 620 1059 517 1059 c 0
 189 1059 81 844 81 525 c 0
 81 205 230 -22 507 -22 c 0
 614 -22 684 11 764 82 c 1
 764 -391 l 1
638 224 m 0
 473 224 427 340 427 522 c 0
 427 699 465 799 614 799 c 0
 680 799 727 787 764 767 c 1
 764 275 l 1
 746 245 702 224 638 224 c 0
EndSplineSet
EndChar

StartChar: question
Encoding: 63 63 291
Width: 1148
VWidth: 0
Flags: W
LayerCount: 2
Fore
SplineSet
424 527 m 1
 629 527 l 1
 824 665 1069 808 1069 1107 c 0
 1069 1337 866 1503 552 1503 c 0
 366 1503 217 1409 155 1373 c 1
 155 1081 l 1
 206 1132 361 1215 492 1215 c 0
 595 1215 697 1157 697 1012 c 0
 697 863 575 708 424 527 c 1
511 -24 m 0
 631 -24 729 74 729 195 c 0
 729 315 631 413 511 413 c 0
 390 413 292 315 292 195 c 0
 292 74 390 -24 511 -24 c 0
EndSplineSet
EndChar

StartChar: quotedbl
Encoding: 34 34 293
Width: 941
VWidth: 0
Flags: W
LayerCount: 2
Fore
SplineSet
167 1012 m 1
 385 1012 l 1
 431 1524 l 1
 120 1524 l 1
 167 1012 l 1
561 1012 m 1
 779 1012 l 1
 825 1524 l 1
 515 1524 l 1
 561 1012 l 1
EndSplineSet
EndChar

StartChar: quotedblbase
Encoding: 8222 8222 294
Width: 889
VWidth: 0
Flags: W
LayerCount: 2
Fore
SplineSet
71 -244 m 1
 243 -244 l 1
 487 243 l 1
 171 243 l 1
 71 -244 l 1
446 -244 m 1
 619 -244 l 1
 862 243 l 1
 546 243 l 1
 446 -244 l 1
EndSplineSet
EndChar

StartChar: quotedblleft
Encoding: 8220 8220 295
Width: 889
VWidth: 0
Flags: W
LayerCount: 2
Fore
SplineSet
208 949 m 1
 443 949 l 1
 338 1481 l 1
 22 1481 l 1
 208 949 l 1
599 949 m 1
 833 949 l 1
 729 1481 l 1
 413 1481 l 1
 599 949 l 1
EndSplineSet
EndChar

StartChar: quotedblright
Encoding: 8221 8221 296
Width: 888
VWidth: 0
Flags: W
LayerCount: 2
Fore
SplineSet
92 992 m 1
 309 992 l 1
 505 1481 l 1
 191 1481 l 1
 92 992 l 1
492 992 m 1
 709 992 l 1
 905 1481 l 1
 592 1481 l 1
 492 992 l 1
EndSplineSet
EndChar

StartChar: quoteleft
Encoding: 8216 8216 297
Width: 530
VWidth: 0
Flags: W
LayerCount: 2
Fore
SplineSet
208 949 m 1
 443 949 l 1
 338 1481 l 1
 22 1481 l 1
 208 949 l 1
EndSplineSet
EndChar

StartChar: quoteright
Encoding: 8217 8217 298
Width: 530
VWidth: 0
Flags: W
LayerCount: 2
Fore
SplineSet
92 992 m 1
 309 992 l 1
 505 1481 l 1
 191 1481 l 1
 92 992 l 1
EndSplineSet
EndChar

StartChar: quotesinglbase
Encoding: 8218 8218 299
Width: 530
VWidth: 0
Flags: W
LayerCount: 2
Fore
SplineSet
90 -244 m 1
 332 -244 l 1
 332 -244 474 158 504 243 c 1
 190 243 l 1
 90 -244 l 1
EndSplineSet
EndChar

StartChar: quotesingle
Encoding: 39 39 300
Width: 561
VWidth: 0
Flags: W
LayerCount: 2
Fore
SplineSet
171 882 m 1
 388 882 l 1
 437 1524 l 1
 128 1524 l 1
 171 882 l 1
EndSplineSet
EndChar

StartChar: r
Encoding: 114 114 301
Width: 844
VWidth: 0
Flags: W
LayerCount: 2
Fore
SplineSet
119 0 m 1
 457 0 l 1
 457 674 l 1
 503 736 608 751 669 751 c 0
 728 751 774 735 806 720 c 1
 858 1016 l 1
 832 1029 790 1038 754 1038 c 0
 626 1038 516 968 457 904 c 1
 457 904 l 1
 457 1036 l 1
 119 1036 l 1
 119 0 l 1
EndSplineSet
EndChar

StartChar: radical
Encoding: 8730 8730 303
Width: 1218
VWidth: 0
Flags: W
LayerCount: 2
Fore
SplineSet
552 -99 m 1
 734 -99 l 1
 1133 1499 l 1
 959 1499 l 1
 867 1122 773 748 681 371 c 1
 640 187 l 1
 618 230 593 306 573 362 c 2
 404 818 l 1
 79 778 l 1
 90 636 l 1
 253 654 l 1
 552 -99 l 1
EndSplineSet
EndChar

StartChar: registered
Encoding: 174 174 306
Width: 1846
VWidth: 0
Flags: W
LayerCount: 2
Fore
SplineSet
610 249 m 1
 773 249 l 1
 773 621 l 1
 944 621 l 1
 1162 249 l 1
 1327 249 l 1
 1327 292 l 1
 1100 645 l 1
 1231 688 1274 752 1274 885 c 0
 1274 1112 1079 1141 906 1141 c 2
 610 1141 l 1
 610 249 l 1
773 750 m 1
 773 1017 l 1
 917 1017 l 2
 1058 1017 1118 970 1118 887 c 0
 1118 795 1073 750 950 750 c 2
 773 750 l 1
925 51 m 0
 558 51 276 312 276 681 c 0
 276 1035 542 1312 925 1312 c 0
 1296 1312 1582 1052 1582 685 c 0
 1582 321 1310 51 925 51 c 0
925 -115 m 0
 1399 -115 1765 229 1765 681 c 0
 1765 1138 1387 1476 925 1476 c 0
 451 1476 83 1133 83 681 c 0
 83 204 469 -115 925 -115 c 0
EndSplineSet
EndChar

StartChar: ring
Encoding: 730 730 307
Width: 685
VWidth: 0
Flags: W
PickledData: "(dp1
S'com.typemytype.robofont.layerData'
p2
(dp3
s."
LayerCount: 2
Fore
SplineSet
342 249 m 0
 227 249 133 338 133 453 c 0
 133 563 226 657 342 657 c 0
 458 657 551 563 551 453 c 0
 551 341 459 249 342 249 c 0
342 142 m 0
 524 142 670 279 670 453 c 0
 670 626 524 762 342 762 c 0
 161 762 15 627 15 453 c 0
 15 280 160 142 342 142 c 0
EndSplineSet
EndChar

StartChar: s
Encoding: 115 115 308
Width: 1010
VWidth: 0
Flags: W
LayerCount: 2
Fore
SplineSet
463 -24 m 0
 782 -24 980 120 980 325 c 0
 980 522 858 610 618 649 c 1
 434 677 404 694 404 743 c 0
 404 792 465 828 562 828 c 0
 703 828 809 767 878 720 c 1
 918 981 l 1
 826 1027 702 1060 544 1060 c 0
 247 1060 57 914 57 718 c 0
 57 524 188 431 398 391 c 0
 486 375 631 368 631 288 c 0
 631 229 543 208 466 208 c 0
 268 208 150 300 103 341 c 1
 59 71 l 1
 161 14 312 -24 463 -24 c 0
EndSplineSet
EndChar

StartChar: section
Encoding: 167 167 314
Width: 1247
VWidth: 0
Flags: W
LayerCount: 2
Fore
SplineSet
556 -120 m 0
 875 -120 1075 24 1075 229 c 0
 1075 337 1038 413 964 466 c 1
 1036 525 1075 603 1075 695 c 0
 1075 892 952 983 712 1022 c 1
 528 1050 498 1064 498 1113 c 0
 498 1162 559 1199 656 1199 c 0
 797 1199 904 1136 973 1089 c 1
 1012 1351 l 1
 920 1397 796 1430 638 1430 c 0
 341 1430 152 1284 152 1088 c 0
 152 981 190 904 262 851 c 1
 189 792 152 713 152 623 c 0
 152 429 282 335 492 295 c 0
 580 279 725 273 725 193 c 0
 725 134 638 112 561 112 c 0
 363 112 244 205 197 246 c 1
 154 -26 l 1
 256 -83 405 -120 556 -120 c 0
734 551 m 1
 727 552 719 554 712 555 c 0
 528 583 443 602 423 647 c 0
 403 693 452 751 470 766 c 1
 477 764 485 764 492 762 c 0
 580 746 788 738 791 658 c 0
 793 599 759 567 735 552 c 1
 734 551 l 1
EndSplineSet
EndChar

StartChar: semicolon
Encoding: 59 59 315
Width: 598
VWidth: 0
Flags: W
LayerCount: 2
Fore
SplineSet
105 -235 m 1
 276 -235 l 1
 502 338 l 1
 165 338 l 1
 105 -235 l 1
297 630 m 0
 409 630 501 720 501 832 c 0
 501 944 409 1035 297 1035 c 0
 185 1035 95 944 95 832 c 0
 95 720 185 630 297 630 c 0
EndSplineSet
EndChar

StartChar: seven
Encoding: 55 55 316
Width: 1242
VWidth: 0
Flags: W
LayerCount: 2
Fore
SplineSet
149 0 m 1
 575 0 l 1
 1177 1194 l 1
 1177 1481 l 1
 107 1481 l 1
 107 1118 l 1
 332 1118 l 1
 332 1197 l 1
 767 1197 l 1
 149 0 l 1
EndSplineSet
EndChar

StartChar: six
Encoding: 54 54 317
Width: 1242
VWidth: 0
Flags: W
LayerCount: 2
Fore
SplineSet
638 -24 m 0
 969 -24 1184 173 1184 496 c 0
 1184 802 1026 959 773 959 c 0
 678 959 590 928 520 887 c 1
 586 1125 771 1194 1049 1220 c 1
 990 1480 l 1
 396 1446 88 1139 88 557 c 0
 88 186 304 -24 638 -24 c 0
628 233 m 0
 505 233 446 341 446 477 c 0
 446 604 453 697 635 697 c 0
 738 697 813 644 813 483 c 0
 813 329 788 233 628 233 c 0
EndSplineSet
EndChar

StartChar: slash
Encoding: 47 47 318
Width: 1124
VWidth: 0
Flags: W
LayerCount: 2
Fore
SplineSet
133 0 m 1
 417 0 l 1
 961 1481 l 1
 674 1481 l 1
 133 0 l 1
EndSplineSet
EndChar

StartChar: sterling
Encoding: 163 163 320
Width: 1242
VWidth: 0
Flags: W
LayerCount: 2
Fore
SplineSet
853 -3 m 0
 958 -3 1077 3 1184 33 c 1
 1136 299 l 1
 1042 281 943 275 851 275 c 0
 761 275 656 284 569 286 c 1
 608 369 648 474 648 573 c 0
 648 584 648 593 647 604 c 1
 992 604 l 1
 992 810 l 1
 628 810 l 1
 613 874 601 956 601 1030 c 0
 601 1137 690 1209 782 1209 c 0
 881 1209 985 1149 1042 1085 c 1
 1111 1085 l 1
 1093 1399 l 1
 1036 1455 883 1503 734 1503 c 0
 398 1503 242 1313 242 1025 c 0
 242 959 250 886 266 810 c 1
 117 810 l 1
 117 604 l 1
 285 604 l 1
 291 553 295 507 295 464 c 0
 295 398 286 341 262 280 c 1
 223 274 171 266 107 262 c 1
 107 -3 l 1
 180 8 252 11 320 11 c 0
 483 11 696 -3 853 -3 c 0
EndSplineSet
EndChar

StartChar: summation
Encoding: 8721 8721 321
Width: 1184
VWidth: 0
Flags: W
LayerCount: 2
Fore
SplineSet
87 0 m 1
 1105 0 l 1
 1105 224 l 1
 418 224 l 1
 870 797 l 1
 452 1260 l 1
 1075 1260 l 1
 1075 1481 l 1
 108 1481 l 1
 108 1317 l 1
 593 780 l 1
 87 155 l 1
 87 0 l 1
EndSplineSet
EndChar

StartChar: t
Encoding: 116 116 322
Width: 805
VWidth: 0
Flags: W
LayerCount: 2
Fore
SplineSet
496 -13 m 0
 606 -13 670 -8 736 5 c 1
 736 242 l 1
 699 236 658 230 621 230 c 0
 545 230 479 256 479 361 c 2
 479 813 l 1
 736 813 l 1
 736 1036 l 1
 479 1036 l 1
 479 1362 l 1
 140 1292 l 1
 140 1036 l 1
 16 1036 l 1
 16 813 l 1
 140 813 l 1
 140 328 l 2
 140 90 247 -13 496 -13 c 0
EndSplineSet
EndChar

StartChar: thorn
Encoding: 254 254 324
Width: 1191
VWidth: 0
Flags: W
LayerCount: 2
Fore
SplineSet
120 -391 m 1
 459 -391 l 1
 459 53 l 1
 538 2 609 -22 714 -22 c 0
 991 -22 1141 205 1141 525 c 0
 1141 844 1048 1059 769 1059 c 0
 638 1059 516 990 459 887 c 1
 459 1430 l 1
 120 1430 l 1
 120 -391 l 1
584 224 m 0
 520 224 477 234 459 247 c 1
 459 739 l 1
 496 778 542 799 608 799 c 0
 757 799 795 699 795 522 c 0
 795 340 749 224 584 224 c 0
EndSplineSet
EndChar

StartChar: three
Encoding: 51 51 325
Width: 1244
VWidth: 0
Flags: W
LayerCount: 2
Fore
SplineSet
573 -24 m 0
 958 -24 1176 171 1176 450 c 0
 1176 637 1029 734 898 774 c 1
 1029 831 1136 932 1121 1144 c 0
 1106 1359 930 1504 577 1504 c 0
 400 1504 202 1440 107 1374 c 1
 107 1068 l 1
 182 1068 l 1
 271 1154 395 1214 522 1214 c 0
 607 1214 747 1183 747 1061 c 0
 747 921 634 893 465 893 c 2
 404 893 l 1
 404 663 l 1
 544 663 l 2
 725 663 797 609 797 483 c 0
 797 297 629 263 496 266 c 0
 353 269 243 335 166 411 c 1
 107 411 l 1
 107 97 l 1
 206 26 346 -24 573 -24 c 0
EndSplineSet
EndChar

StartChar: three.superior
Encoding: 65539 -1 326
Width: 677
VWidth: 0
Flags: W
LayerCount: 2
Fore
SplineSet
319 549 m 0
 531 549 649 655 649 810 c 0
 649 913 570 966 498 988 c 1
 570 1020 629 1074 622 1190 c 1
 613 1309 516 1389 321 1389 c 0
 224 1389 113 1353 62 1317 c 1
 62 1147 l 1
 105 1147 l 1
 154 1194 220 1230 290 1230 c 0
 337 1230 415 1211 415 1145 c 0
 415 1067 353 1054 259 1054 c 2
 226 1054 l 1
 226 928 l 1
 303 928 l 2
 402 928 443 897 443 827 c 0
 443 725 350 705 276 707 c 0
 198 709 138 744 95 787 c 1
 62 787 l 1
 62 615 l 1
 118 576 195 549 319 549 c 0
EndSplineSet
EndChar

StartChar: threequarters
Encoding: 190 190 327
Width: 1551
VWidth: 0
Flags: W
LayerCount: 2
Fore
SplineSet
1184 0 m 1
 1391 0 l 1
 1391 121 l 1
 1470 121 l 1
 1470 249 l 1
 1391 249 l 1
 1391 819 l 1
 1116 819 l 1
 836 249 l 1
 836 121 l 1
 1184 121 l 1
 1184 0 l 1
338 0 m 1
 465 0 l 1
 1272 1430 l 1
 1144 1430 l 1
 338 0 l 1
999 249 m 1
 1184 645 l 1
 1184 249 l 1
 999 249 l 1
EndSplineSet
Refer: 326 -1 N 1 0 0 1 0 0 2
EndChar

StartChar: tilde
Encoding: 732 732 328
Width: 1181
VWidth: 0
Flags: W
PickledData: "(dp1
S'com.fontlab.hintData'
p2
(dp3
S'vhints'
p4
((dp5
S'position'
p6
I129
sS'width'
p7
I195
s(dp8
g6
I855
sg7
I197
stp9
sS'hhints'
p10
((dp11
g6
I196
sg7
I201
s(dp12
g6
I332
sg7
I209
stp13
ss."
HStem: 196 201 332 209
VStem: 129 195 855 197
LayerCount: 2
Fore
SplineSet
824.945 196 m 0
 985.181 196 1048.76 276.766 1052.01 541 c 1
 855.014 541 l 1
 855.014 432.886 833.099 396.848 779.158 396.848 c 0
 671.278 396.848 477.297 541 368.333 541 c 0
 228.038 541 129 442.29 129 196 c 0
 129 194.268 324.014 196 324.014 196 c 1
 323.856 309.294 339.117 332.173 396.026 332.173 c 0
 510.885 332.173 646.927 196 824.945 196 c 0
EndSplineSet
EndChar

StartChar: trademark
Encoding: 8482 8482 329
Width: 1764
VWidth: 0
Flags: W
LayerCount: 2
Fore
SplineSet
778 767 m 1
 957 767 l 1
 957 1320 l 1
 976 1320 l 1
 1164 869 l 1
 1292 869 l 1
 1481 1315 l 1
 1495 1315 l 1
 1495 767 l 1
 1673 767 l 1
 1673 1483 l 1
 1392 1483 l 1
 1230 1073 l 1
 1073 1483 l 1
 778 1483 l 1
 778 767 l 1
269 767 m 1
 459 767 l 1
 459 1326 l 1
 667 1326 l 1
 667 1483 l 1
 61 1483 l 1
 61 1326 l 1
 269 1326 l 1
 269 767 l 1
EndSplineSet
EndChar

StartChar: two
Encoding: 50 50 330
Width: 1242
VWidth: 0
Flags: W
LayerCount: 2
Fore
SplineSet
126 0 m 1
 1197 0 l 1
 1197 284 l 1
 614 284 l 1
 813 439 1151 757 1151 1054 c 0
 1151 1328 959 1503 614 1503 c 0
 445 1503 226 1434 150 1368 c 1
 226 1101 l 1
 282 1131 438 1199 571 1199 c 0
 678 1199 767 1156 767 1011 c 0
 767 782 310 391 126 234 c 1
 126 0 l 1
EndSplineSet
EndChar

StartChar: two.superior
Encoding: 65540 -1 331
Width: 725
VWidth: 0
Flags: W
LayerCount: 2
Fore
SplineSet
79 555 m 1
 672 555 l 1
 672 712 l 1
 348 712 l 1
 458 797 645 974 645 1138 c 0
 645 1291 540 1389 349 1389 c 0
 255 1389 134 1349 92 1313 c 1
 135 1164 l 1
 165 1182 251 1220 325 1220 c 0
 384 1220 433 1196 433 1116 c 0
 433 989 182 772 79 685 c 1
 79 555 l 1
EndSplineSet
EndChar

StartChar: u
Encoding: 117 117 332
Width: 1209
VWidth: 0
Flags: W
PickledData: "(dp1
S'com.fontlab.hintData'
p2
(dp3
S'vhints'
p4
((dp5
S'position'
p6
I99
sS'width'
p7
I344
stp8
sS'hhints'
p9
((dp10
g6
I-22
sg7
I277
stp11
ss."
HStem: -22 277<355 635.5>
VStem: 99 344<218 1036 515 1036 515 1036>
LayerCount: 2
Fore
SplineSet
439 -22 m 0
 564 -22 686 39 750 152 c 1
 752 0 l 1
 1091 0 l 1
 1091 1036 l 1
 752 1036 l 1
 752 319 l 1
 711 276 664 255 607 255 c 0
 467 255 443 344 443 515 c 2
 443 1036 l 1
 99 1036 l 1
 99 341 l 2
 99 95 271 -22 439 -22 c 0
EndSplineSet
EndChar

StartChar: underscore
Encoding: 95 95 340
Width: 1196
VWidth: 0
Flags: W
LayerCount: 2
Fore
SplineSet
-13 -306 m 1
 1211 -306 l 1
 1211 -131 l 1
 -13 -131 l 1
 -13 -306 l 1
EndSplineSet
EndChar

StartChar: uni00AD
Encoding: 173 173 342
Width: 786
VWidth: 0
Flags: W
LayerCount: 2
Fore
SplineSet
103 437 m 1
 685 437 l 1
 685 635 l 1
 103 635 l 1
 103 437 l 1
EndSplineSet
EndChar

StartChar: uni02C9
Encoding: 713 713 371
Width: 460
VWidth: 0
Flags: W
LayerCount: 2
Fore
SplineSet
-46 1168 m 1
 509 1168 l 1
 509 1335 l 1
 -46 1335 l 1
 -46 1168 l 1
EndSplineSet
EndChar

StartChar: uni03BC
Encoding: 956 956 372
Width: 1220
VWidth: 0
Flags: W
LayerCount: 2
Fore
SplineSet
112 -341 m 1
 454 -341 l 1
 454 -22 l 1
 461 -22 469 -23 476 -22 c 0
 591 -16 701 45 762 152 c 1
 764 0 l 1
 1103 0 l 1
 1103 1036 l 1
 764 1036 l 1
 764 319 l 1
 723 276 675 255 618 255 c 0
 485 255 457 335 454 490 c 1
 454 1036 l 1
 112 1036 l 1
 112 -341 l 1
EndSplineSet
EndChar

StartChar: uni2215
Encoding: 8725 8725 387
Width: 1124
VWidth: 0
Flags: W
LayerCount: 2
Fore
SplineSet
133 0 m 1
 417 0 l 1
 961 1481 l 1
 674 1481 l 1
 133 0 l 1
EndSplineSet
EndChar

StartChar: uni2219
Encoding: 8729 8729 388
Width: 461
VWidth: 0
Flags: W
LayerCount: 2
Fore
SplineSet
232 435 m 0
 304 435 362 492 362 564 c 0
 362 636 304 694 232 694 c 0
 160 694 103 636 103 564 c 0
 103 492 160 435 232 435 c 0
EndSplineSet
EndChar

StartChar: v
Encoding: 118 118 392
Width: 1064
VWidth: 0
Flags: W
LayerCount: 2
Fore
SplineSet
354 0 m 1
 709 0 l 1
 1085 1036 l 1
 736 1036 l 1
 684 862 632 686 579 512 c 0
 565 468 552 422 538 378 c 1
 536 378 l 1
 496 511 l 2
 443 688 392 859 336 1036 c 1
 -20 1036 l 1
 354 0 l 1
EndSplineSet
EndChar

StartChar: w
Encoding: 119 119 393
Width: 1705
VWidth: 0
Flags: W
LayerCount: 2
Fore
SplineSet
318 0 m 1
 672 0 l 1
 852 688 l 1
 854 688 l 1
 1030 0 l 1
 1387 0 l 1
 1706 1036 l 1
 1351 1036 l 1
 1222 459 l 1
 1212 423 1204 385 1197 349 c 1
 1190 369 1175 419 1162 468 c 0
 1149 517 1009 1036 1009 1036 c 1
 716 1036 l 1
 654 835 592 634 536 431 c 2
 511 341 l 1
 510 341 l 1
 492 429 l 2
 479 488 358 1036 358 1036 c 1
 1 1036 l 1
 318 0 l 1
EndSplineSet
EndChar

StartChar: x
Encoding: 120 120 398
Width: 1137
VWidth: 0
Flags: W
LayerCount: 2
Fore
SplineSet
-13 0 m 1
 380 0 l 1
 423 64 467 130 510 195 c 2
 569 286 l 1
 629 197 l 2
 672 133 713 66 756 0 c 1
 1151 0 l 1
 771 527 l 1
 1142 1036 l 1
 747 1036 l 1
 706 972 667 909 626 845 c 2
 569 756 l 1
 551 787 528 821 510 851 c 2
 393 1036 l 1
 -3 1036 l 1
 369 522 l 1
 -13 0 l 1
EndSplineSet
EndChar

StartChar: y
Encoding: 121 121 399
Width: 1058
VWidth: 0
Flags: W
LayerCount: 2
Fore
SplineSet
181 -393 m 1
 536 -393 l 1
 537 -394 619 -236 667 -103 c 2
 1083 1036 l 1
 733 1036 l 1
 539 398 l 1
 332 1036 l 1
 -24 1036 l 1
 358 24 l 1
 301 -139 243 -271 181 -393 c 1
EndSplineSet
EndChar

StartChar: yen
Encoding: 165 165 403
Width: 1242
VWidth: 0
Flags: W
LayerCount: 2
Fore
SplineSet
483 0 m 1
 864 0 l 1
 864 396 l 1
 1233 396 l 1
 1233 601 l 1
 864 601 l 1
 933 725 l 1
 1233 725 l 1
 1233 931 l 1
 1052 931 l 1
 1371 1481 l 1
 948 1481 l 1
 860 1300 770 1126 681 944 c 1
 586 1123 496 1300 404 1481 c 1
 -32 1481 l 1
 288 931 l 1
 112 931 l 1
 112 725 l 1
 408 725 l 1
 481 601 l 1
 112 601 l 1
 112 396 l 1
 483 396 l 1
 483 0 l 1
EndSplineSet
EndChar

StartChar: z
Encoding: 122 122 405
Width: 1001
VWidth: 0
Flags: W
LayerCount: 2
Fore
SplineSet
43 0 m 1
 961 0 l 1
 961 257 l 1
 462 257 l 1
 955 818 l 1
 955 1036 l 1
 70 1036 l 1
 70 787 l 1
 535 787 l 1
 43 220 l 1
 43 0 l 1
EndSplineSet
EndChar

StartChar: zero
Encoding: 48 48 409
Width: 1440
VWidth: 0
Flags: W
LayerCount: 2
Fore
SplineSet
723 227 m 0
 550 227 527 409 527 741 c 0
 527 1061 555 1223 723 1223 c 0
 890 1223 918 1061 918 741 c 0
 918 409 896 227 723 227 c 0
723 -24 m 0
 1133 -24 1299 251 1299 701 c 0
 1299 1153 1166 1503 723 1503 c 0
 308 1503 148 1211 148 779 c 0
 148 313 282 -24 723 -24 c 0
EndSplineSet
EndChar
